<svg preserveAspectRatio="none" width="100%" height="100%" overflow="visible" style="display: block;" viewBox="0 0 119.63 63.2437" fill="none" xmlns="http://www.w3.org/2000/svg">
<g id="image 17 [Vectorized]" clip-path="url(#clip0_0_29)">
<path id="Subtract" d="M61.8396 29.3823C64.5735 29.4881 67.9545 29.3918 70.7517 29.4086C71.3667 33.5788 72.3588 37.7314 72.8855 41.9223C73.0287 43.0621 73.1257 44.1925 73.3113 45.3276C73.5899 40.3085 74.9974 34.3501 75.8455 29.3833L84.5906 29.4057C84.5494 30.5517 84.5687 31.8385 84.5857 32.9956C84.711 41.467 84.419 50.0266 84.6004 58.4907L78.4207 58.4965C78.4679 52.9658 78.3712 47.5257 78.5301 41.977L78.1629 41.9291C77.6352 45.7718 76.8422 49.5846 76.1219 53.3911C75.8635 54.7563 75.2963 57.2015 75.1482 58.5024C73.6095 58.5006 71.9159 58.532 70.3894 58.4858L67.4392 42.6586L67.2342 43.392C67.017 44.1829 67.1712 47.1633 67.1824 48.1469L67.2088 55.1772C67.2095 55.6899 67.238 57.4924 67.1346 57.9067C67.1065 58.1761 67.1013 58.193 67.0144 58.4506C66.3021 58.6061 62.9339 58.466 61.8299 58.5356L61.8396 29.3823ZM66.8221 38.3334C66.7158 39.6505 67.03 42.383 67.0457 43.9389L67.0662 53.5415C67.0667 54.3187 67.0172 57.2659 67.1219 57.9067C67.2252 57.4921 67.1968 55.6913 67.1961 55.1782L67.1697 48.1479C67.1586 47.1648 67.0033 44.1831 67.2205 43.392L67.4256 42.6586C67.3977 41.6499 67.0193 39.3888 66.8221 38.3334ZM78.6785 38.4936C78.4797 39.7405 78.324 40.6251 78.1736 41.9282L78.5418 41.977C78.6477 41.2793 78.6888 39.1989 78.6785 38.4936Z" fill="var(--fill-0, #3B3A39)"/>
<path id="Subtract_2" d="M50.2146 29.3761C53.0528 29.4374 56.0637 29.3996 58.9138 29.4044L58.9119 58.506C56.8763 58.4943 54.84 58.4939 52.8044 58.505L52.8074 44.7218C52.8181 43.0055 53.0577 40.762 52.9548 39.1993C52.8088 39.7939 52.678 40.9196 52.574 41.5753C52.3426 43.0106 52.1021 44.4447 51.8533 45.8771C51.0979 50.1001 50.2921 54.314 49.4353 58.5177C47.8946 58.4771 46.2416 58.5072 44.6921 58.5118C44.6248 57.9216 44.525 57.3776 44.4109 56.796C43.3651 51.4628 42.2836 46.1455 41.5183 40.7618C41.5224 40.7531 41.5257 40.744 41.53 40.7355C41.5094 40.0911 41.3077 38.9909 41.2009 38.3185C41.1762 39.2413 41.1923 40.8917 41.3435 41.8448C41.3424 41.8736 41.341 41.9026 41.3396 41.9308C41.3239 43.6442 41.4161 45.5469 41.4304 47.2862L41.4324 58.5245L36.2205 58.5304L36.2234 29.3907L45.0193 29.4044C46.1133 34.7278 47.0109 40.09 47.7097 45.4796C47.9504 40.8756 49.2352 34.0291 50.2146 29.3761Z" fill="var(--fill-0, #3B3A39)"/>
<path id="Vector" d="M27.6451 29.3828L33.4383 29.409L33.4462 34.8405L33.4497 46.149C33.4539 49.4418 33.9639 54.32 31.6074 56.8595C29.0351 59.7173 22.4399 59.7071 19.7396 57.0873C16.9309 54.3623 17.6807 48.6007 17.6297 44.9149C17.5583 39.7574 17.6932 34.5503 17.6346 29.3811C19.5823 29.4539 21.9711 29.3995 23.9447 29.4071C24.0311 36.8873 23.8372 44.4286 24.0032 51.9101C24.0205 52.6936 24.3415 52.9754 24.91 53.4343C25.2215 53.4688 25.5342 53.4911 25.8474 53.5009C26.8041 53.529 27.501 52.9387 27.5585 51.9999C27.7104 49.5212 27.6415 46.9583 27.6406 44.4747L27.6451 29.3828Z" fill="var(--fill-0, #3B3A39)"/>
<path id="Vector_2" d="M6.8089 28.9114C8.92423 28.6074 11.9519 29.2382 13.4713 30.7845C15.6949 33.0477 15.5851 36.087 15.6193 39.0075L9.7869 39.0074C9.81169 37.8318 9.99504 35.4983 9.17442 34.6964C8.8595 34.3895 8.42977 34.2297 7.99081 34.2562C7.52726 34.2815 7.09291 34.4908 6.78411 34.8376C6.217 35.4752 6.24881 36.2375 6.27119 37.0331C6.35188 39.8937 10.4325 41.3816 12.4001 43.1479C14.4621 44.9183 15.383 47.0325 15.5745 49.6968C15.9579 55.0306 14.2764 58.6049 8.49791 58.985C8.05594 58.9959 7.61377 58.9957 7.17179 58.9844C0.319708 58.8016 -0.161906 53.5123 0.00683487 48.1546C1.6932 48.2443 3.98646 48.1805 5.75495 48.2114C5.74481 49.3586 5.49884 52.2825 6.302 53.1335C6.85065 53.715 8.25204 53.7764 8.79637 53.0478C9.49938 52.107 9.40233 50.112 8.92252 49.0576C7.77845 46.9934 5.23139 45.9518 3.41543 44.5127C0.352827 42.1205 -0.408704 38.549 0.0825346 34.8767C0.62349 30.8326 2.99734 29.2473 6.8089 28.9114Z" fill="var(--fill-0, #3B3A39)"/>
<path id="Vector_3" d="M25.2364 4.88757C27.1108 4.95521 29.3375 4.89711 31.2394 4.8968C31.7671 8.54519 32.4982 11.8246 32.9323 15.5617C33.415 12.5191 33.8534 7.83536 34.7135 4.89179L40.5485 4.89961L40.5456 24.5306L36.363 24.5242C36.3602 20.3346 36.3167 16.6637 36.5499 12.4863C36.5728 12.2213 36.6323 11.9116 36.5363 11.6744C36.4329 12.0027 36.3814 12.3344 36.3358 12.6745C35.802 16.6558 34.9024 20.5738 34.1916 24.5245C33.1127 24.5306 32.0338 24.5221 30.9551 24.4993C30.6949 23.3846 30.6088 21.9316 30.3104 20.894C29.4588 17.9339 29.4463 14.0589 28.4847 11.2588C28.9135 14.9104 28.7385 20.6835 28.7314 24.5333C27.5715 24.5135 26.3812 24.5271 25.2186 24.5268L25.2364 4.88757Z" fill="var(--fill-0, #3B3A39)"/>
<path id="Vector_4" d="M95.4619 29.3778C100.107 29.5491 105.678 29.3884 110.414 29.3997V34.8863L106.168 34.8947L106.164 54.5107L106.167 58.4926C104.081 58.5222 101.922 58.4472 99.8465 58.5343C99.6739 50.887 99.8335 42.586 99.8214 34.8949L95.4629 34.8895L95.4619 29.3778Z" fill="var(--fill-0, #3B3A39)"/>
<path id="Subtract_3" d="M87.2104 4.89122C93.2944 5.07664 98.812 3.51494 98.0766 12.2643C97.7865 15.7155 99.0391 20.4668 96.6889 23.2389C94.8183 25.0088 89.8399 24.5383 87.1732 24.524C87.1918 18.2047 87.0199 11.1516 87.2104 4.89122ZM91.434 8.60216C91.4039 12.6168 91.3799 16.8028 91.4311 20.819C92.1315 20.7913 92.8802 20.8008 93.5395 20.5611C94.1816 19.5062 93.6937 12.4731 93.8422 10.8951C94.0429 8.76465 93.3117 8.62374 91.434 8.60216Z" fill="var(--fill-0, #3B3A39)"/>
<path id="Subtract_4" d="M73.2699 4.62058C79.5688 4.06984 79.6589 9.1498 79.3773 13.8716C79.1007 18.5095 80.9512 23.64 74.8919 24.8559C71.9186 25.0426 68.728 24.0237 68.5413 20.644C68.3334 16.8733 68.3467 12.528 68.5658 8.75047C68.7193 6.10144 70.8556 4.91533 73.2699 4.62058ZM73.4124 8.30906C73.1034 8.51035 72.7714 8.76494 72.7552 9.17918C72.6124 12.8377 72.6265 16.562 72.7464 20.2221C72.772 20.9989 73.6475 21.2728 74.2992 21.2602C74.6835 20.957 75.0111 20.7288 75.0687 20.2036C75.1867 19.1239 75.2379 9.0765 74.8617 8.63914C74.6006 8.33591 74.1537 8.29446 73.7777 8.29637C73.6559 8.29747 73.534 8.30164 73.4124 8.30906Z" fill="var(--fill-0, #3B3A39)"/>
<path id="Vector_5" d="M55.0241 4.8912C56.8097 4.93395 58.7318 4.90153 60.5287 4.90514C61.0333 7.06704 61.7837 9.32216 62.3247 11.4895C62.6812 12.9178 62.9467 14.3404 63.263 15.7779C63.3395 15.0318 63.2646 13.1037 63.2624 12.2649L63.2567 4.89421L66.7647 4.90986L66.7735 24.5247L65.2126 24.5294C63.9702 24.5353 62.7277 24.5258 61.4855 24.5008C61.4345 23.9884 61.3225 23.4919 61.1903 22.995C60.2275 19.378 59.2103 15.7715 58.4643 12.1019C58.431 13.2403 58.5352 14.4578 58.5419 15.6153L58.5495 24.5313L55.0213 24.5249L55.0241 4.8912Z" fill="var(--fill-0, #3B3A39)"/>
<path id="Vector_6" d="M87.711 29.3901C89.7345 29.4397 91.9458 29.3969 93.9851 29.3996C94.0704 32.2955 94.0142 35.4443 94.0142 38.3578L94.0192 58.4969C91.9388 58.5226 89.8013 58.4955 87.7158 58.4937C87.6287 54.9649 87.6894 51.1778 87.6888 47.6283L87.711 29.3901Z" fill="var(--fill-0, #3B3A39)"/>
<path id="Vector_7" d="M0.0368202 4.89436L4.2437 4.91081L4.25263 12.5137L6.69583 12.518C6.69382 9.97684 6.70586 7.4358 6.73186 4.89476L10.8825 4.9071L10.876 24.5155L9.91829 24.5302L6.69272 24.5212C6.71148 21.8716 6.63742 18.7766 6.7435 16.1655C5.91134 16.1483 5.07887 16.143 4.24651 16.1496L4.25113 24.5288L0.0274768 24.5296L0.0368202 4.89436Z" fill="var(--fill-0, #3B3A39)"/>
<path id="Subtract_5" d="M44.884 4.88394C46.6898 4.9288 48.624 4.89696 50.4396 4.89957C51.1188 9.72428 52.2096 14.6031 52.9719 19.425C53.2365 21.0993 53.5039 22.8729 53.8449 24.5265C52.3981 24.5352 50.9507 24.5297 49.5041 24.5109C49.4621 24.0615 49.3798 23.5763 49.3127 23.1261L49.1467 21.8586H45.8879L45.5236 24.5343C44.2119 24.5205 42.8999 24.5162 41.5881 24.5207C41.7434 23.243 42.0962 21.7763 42.299 20.4738C42.7953 17.2877 43.4108 14.1199 43.9084 10.9308C44.2075 9.01401 44.7511 6.81501 44.884 4.88394ZM47.3391 11.4406C47.3693 12.8678 46.6842 17.0589 46.424 18.4269L48.4777 18.4367C48.2191 16.0682 47.9421 13.7013 47.6467 11.3371L47.3391 11.4406Z" fill="var(--fill-0, #3B3A39)"/>
<path id="Vector_8" d="M12.7814 4.89038L17.0714 4.91195C17.0622 6.83871 16.8273 20.1674 17.3251 20.8317C17.5247 21.0982 17.8684 21.2123 18.1873 21.2391C18.5639 21.2707 18.7954 21.1622 19.0704 20.9037C19.2316 20.7521 19.3553 20.5786 19.3991 20.3584C19.6894 18.8991 19.4945 16.8706 19.4928 15.3502L19.4969 4.89479L23.415 4.91838L23.4143 8.54729L23.4175 16.1732C23.4183 19.2917 23.9622 23.6722 20.1765 24.6126C15.292 25.826 12.3156 23.3278 12.7604 18.392C12.8286 17.6363 12.7699 16.3439 12.7701 15.5296L12.7814 4.89038Z" fill="var(--fill-0, #3B3A39)"/>
<path id="Vector_9" d="M104.163 4.62046C105.616 4.4093 107.551 4.80291 108.598 5.87432C110.085 7.39423 110.098 9.42706 110.122 11.4034L106.222 11.4218C106.223 10.6579 106.217 9.89423 106.203 9.13061C105.907 8.64388 105.577 8.23512 104.957 8.2295C104.02 8.22097 103.698 9.35832 103.789 10.095C104.041 12.1364 106.348 12.8966 107.748 14.0653C109.113 15.1539 109.92 16.5733 110.055 18.3447C110.338 22.0544 109.351 24.4787 105.419 24.8797L105.101 24.8851C100.012 24.9522 99.5402 21.8062 99.5884 17.6165L103.418 17.6293C103.405 18.3683 103.173 21.4161 104.707 21.361C105.124 21.3461 105.545 20.8118 105.783 20.4763C105.943 17.1466 104.666 17.1006 102.135 15.29C99.2833 13.2501 98.7574 9.0994 100.587 6.24404C101.314 5.109 102.942 4.76076 104.163 4.62046Z" fill="var(--fill-0, #3B3A39)"/>
<path id="Vector_10" d="M81.169 4.89237L85.3525 4.90752L85.3733 24.5234L81.1539 24.5247C81.1392 23.6718 81.1355 22.8027 81.145 21.9501C81.2076 16.278 81.039 10.5595 81.169 4.89237Z" fill="var(--fill-0, #3B3A39)"/>
</g>
<defs>
<clipPath id="clip0_0_29">
<rect width="119.63" height="63.2437" fill="white"/>
</clipPath>
</defs>
</svg>
