<svg preserveAspectRatio="none" width="100%" height="100%" overflow="visible" style="display: block;" viewBox="0 0 120 61.3174" fill="none" xmlns="http://www.w3.org/2000/svg">
<g id="image 34 [Vectorized]" clip-path="url(#clip0_0_54)">
<path id="Vector" d="M96.7919 10.1222L96.935 10.1531C97.0805 10.4002 97.0128 16.8438 97.0098 17.6719C96.7422 17.5273 96.4895 17.4506 96.2015 17.3703C94.4733 16.8875 93.6074 17.2428 92.1278 18.0594C92.6182 18.7108 93.238 19.5577 93.5649 20.3012C96.2745 26.4638 93.4607 35.0562 86.4074 36.6404C84.8242 36.9961 82.5631 37.0722 81.0182 36.5287C80.6565 36.8592 80.2416 37.5238 80.247 38.018C80.2703 40.1158 83.6392 40.5455 85.2248 40.8985C88.5859 41.6467 92.5751 42.3344 95.017 45.0325C98.1799 48.5265 97.5571 55.0543 93.8859 58.0382C90.3937 60.8761 86.1398 61.103 81.838 60.8288C80.4416 60.709 79.0637 60.4288 77.732 59.9928C75.65 59.2948 73.5434 57.9703 72.5476 55.9434C71.9398 54.7059 71.932 53.2922 72.3637 51.9984C73.0027 50.0841 74.7045 48.9247 76.4661 48.1355C77.1116 47.8462 77.7524 47.6332 78.3991 47.3164C74.8326 46.1971 72.5841 44.0037 73.5847 39.9783C74.1542 37.6851 75.9535 36.2029 77.9344 35.0769C75.6009 33.2134 74.3745 31.3408 73.911 28.315C73.3482 24.5307 73.714 21.1437 75.9446 17.9541C78.8428 13.8106 85.5194 12.6038 89.6278 15.6215C89.7374 15.4005 89.8535 15.1832 89.9775 14.9698C91.1607 12.9044 93.0751 11.1889 95.3925 10.5044C95.8541 10.368 96.3266 10.2485 96.7919 10.1222ZM84.1476 31.6044C86.4685 31.3166 86.7769 28.9384 86.935 26.9959C87.1152 24.7744 87.2751 19.0744 84.0643 18.9422C83.3991 19.0141 82.6781 19.1811 82.2787 19.7799C80.9997 21.6977 80.9781 24.9349 81.1661 27.1353C81.3296 29.0447 81.808 31.5569 84.1476 31.6044ZM85.2805 55.083C87.3727 54.9577 90.1733 54.2799 90.0631 51.6238C89.9775 49.557 85.3362 48.5456 83.7973 48.6427L83.75 48.646C82.1817 48.874 80.3386 49.5857 79.3446 50.865C78.5458 51.8941 78.6218 53.5131 79.7464 54.2542C81.1823 55.201 83.6176 55.1541 85.2805 55.083Z" fill="var(--fill-0, #191715)"/>
<path id="Vector_2" d="M107.665 13.9147C115.924 13.3797 119.033 20.9228 119.582 27.8788C120.223 36.017 119.919 49.7412 109.182 50.7554C106.664 50.9426 104.255 50.3322 102.271 48.7388C98.8972 46.0283 97.7714 41.2459 97.3319 37.1364C96.6906 31.1416 96.9427 22.2237 100.918 17.3149C102.666 15.157 104.958 14.1974 107.665 13.9147ZM108.876 44.6586C109.309 44.6041 109.576 44.5301 109.853 44.1594C110.431 43.3882 110.614 41.9959 110.731 41.0513C111.095 38.122 110.999 35.1683 111.003 32.2191C111.006 29.3143 111.082 26.3863 110.718 23.501C110.603 22.5874 110.405 20.8893 109.657 20.2872C109.296 19.9964 108.821 20.0118 108.382 20.0216C107.892 20.1119 107.547 20.2732 107.252 20.6907C105.66 22.9464 106.001 39.0302 106.593 42.2425C106.727 42.9708 106.954 44.0043 107.61 44.4418C107.986 44.693 108.443 44.6634 108.876 44.6586Z" fill="var(--fill-0, #191715)"/>
<path id="Vector_3" d="M27.0355 13.9127C28.5276 13.7499 30.3374 14.2098 31.4222 15.2845C33.4928 17.3361 33.3097 20.6554 33.3098 23.3423L33.3076 28.6555L33.3055 42.5578C33.3053 45.0576 33.2637 47.7031 33.3199 50.1922C32.4974 50.0971 30.8882 50.1359 30.023 50.1382C28.382 50.1426 26.6437 50.1101 25.0094 50.1631L25.0108 50.0623L25.0129 32.2241L25.0135 26.4133C25.0135 25.2887 25.041 24.1149 24.9452 23.0728C24.7307 20.2315 22.0123 20.1777 20.2706 21.7381C19.8404 22.1235 20.0086 25.2876 20.0117 25.9581L20.017 50.0054C19.4071 49.921 17.2519 49.9362 16.5262 49.9502C15.0753 49.9783 13.1325 49.8828 11.7333 49.9963L11.7188 14.3647L20.0398 14.3599C19.9703 15.2944 20.0087 16.9587 20.0475 17.9015C20.3859 17.6566 21.0365 16.96 21.4252 16.6339C23.2545 15.0995 24.6687 14.1989 27.0355 13.9127Z" fill="var(--fill-0, #191715)"/>
<path id="Vector_4" d="M62.7438 14.8447L71.0503 14.8391C70.9923 15.9101 71.0258 17.2507 71.0264 18.3385L71.0276 24.3355L71.0264 42.9268L71.033 48.0463C71.0336 48.4745 71.0653 50.1801 70.9863 50.4816C70.5725 50.4109 68.3641 50.4128 67.7929 50.4281C66.233 50.4697 64.2635 50.3547 62.7491 50.4752L62.7438 14.8447Z" fill="var(--fill-0, #191715)"/>
<path id="Vector_5" d="M50.7629 -2.28882e-06H59.0524C58.965 2.86525 59.0389 6.19203 59.0386 9.0885L59.037 26.5856L59.0365 42.2768C59.0367 44.9011 58.9599 48.0333 59.0583 50.615C58.4766 50.5212 56.9217 50.5562 56.2692 50.5565L51.2515 50.5702C51.2504 49.6656 51.2911 48.1899 51.2061 47.3314C49.5725 49.4995 47.714 50.9479 44.911 50.921C43.3139 50.9056 41.5858 50.3008 40.5029 49.1019C37.5735 45.8589 37.2078 40.7859 36.9129 36.6244C36.6987 33.8459 36.7269 31.4289 36.9117 28.6813C37.2723 23.3217 38.4589 14.1602 45.5144 14.1815C47.8736 14.1886 49.2123 15.2457 50.7696 16.8399L50.7629 -2.28882e-06ZM48.5855 45.1387C49.3368 44.9938 50.2075 44.6732 50.6974 44.0605L50.7196 44.0332C50.9766 43.7119 50.8817 39.5092 50.8819 38.7335L50.8834 29.78L50.8825 24.252C50.8822 23.2406 50.9252 22.1147 50.828 21.1219C50.7128 19.9452 48.6949 19.9727 47.8535 20.0358C46.2316 20.3946 45.9744 22.7435 45.8288 24.1518C45.5019 27.3107 45.5349 30.5555 45.5219 33.7295C45.4855 35.4248 45.5665 37.0947 45.6307 38.786C45.6844 40.2036 45.6914 41.4633 46.0059 42.8696C46.3527 44.4205 46.8509 45.1823 48.5855 45.1387Z" fill="var(--fill-0, #191715)"/>
<path id="Vector_6" d="M0 0H7.91509L7.91497 39.2206C7.00982 39.1331 5.69275 39.1711 4.74901 39.1721L0 39.1802V0Z" fill="var(--fill-0, #191715)"/>
<path id="Vector_7" d="M62.7313 -2.28882e-06H71.0492C70.9947 0.869004 71.033 2.12901 71.0324 3.02094L71.0378 8.32862C70.4223 8.24389 68.2774 8.25976 67.5474 8.27359C66.0935 8.30102 64.157 8.20706 62.7546 8.31946C62.7241 5.58838 62.8133 2.70468 62.7313 -2.28882e-06Z" fill="var(--fill-0, #191715)"/>
<path id="Vector_8" d="M0 42.2525C2.36771 42.2859 5.59356 42.3458 7.91707 42.2352L7.91868 47.5537C7.9185 48.4792 7.88539 49.7108 7.94431 50.6119C7.31138 50.5171 5.87172 50.5554 5.17063 50.556L0 50.5617V42.2525Z" fill="var(--fill-0, #191715)"/>
</g>
<defs>
<clipPath id="clip0_0_54">
<rect width="120" height="61.3174" fill="white"/>
</clipPath>
</defs>
</svg>
