<svg preserveAspectRatio="none" width="100%" height="100%" overflow="visible" style="display: block;" viewBox="0 0 150 45.6599" fill="none" xmlns="http://www.w3.org/2000/svg">
<g id="image 32 [Vectorized]" clip-path="url(#clip0_0_84)">
<path id="Vector" d="M37.2895 0.324344C40.673 0.0898122 42.4094 1.8645 43.6738 4.69003C44.7041 2.3199 46.2156 0.781565 48.9102 0.384898C51.9693 -0.0654321 55.2889 1.29193 56.3233 4.4013C56.8974 6.12696 56.7257 8.48719 56.7177 10.3325L56.7102 15.877L56.7123 21.9594C56.7142 22.7724 56.8167 25.5513 56.5453 26.1231C56.3622 26.2974 56.1123 26.3487 55.8688 26.3802C55.1762 26.4699 54.4247 26.3901 53.7252 26.3843C52.995 26.3782 52.2637 26.4172 51.5337 26.4032C51.2429 26.3976 50.6854 26.4242 50.5103 26.1533C49.8991 25.2074 50.632 11.4054 50.1684 8.65106C50.0701 8.06643 49.9006 7.43393 49.4745 6.99812C48.9467 6.45822 48.2655 6.35068 47.5443 6.34887C46.6541 6.34664 45.9703 6.62322 45.3377 7.26151C44.9262 7.67447 44.6397 8.19527 44.5111 8.76401C44.0972 10.5812 44.1991 13.9275 44.1991 15.9108L44.2026 25.2093C44.1718 25.8508 44.0406 26.4208 43.2246 26.4236C41.7439 26.4287 40.2669 26.3512 38.7814 26.3983C38.5556 26.4054 38.0415 26.3231 37.9539 26.0634C37.6809 25.1398 37.7996 23.9589 37.7996 22.9766L37.7995 14.4085C37.7995 12.7451 37.8772 11.0092 37.6904 9.36499C37.5406 8.38671 37.3954 7.37229 36.5432 6.74594C35.7585 6.09972 33.8367 6.12754 33.1028 6.84278C31.4266 8.47656 31.7164 12.1326 31.7164 14.2638L31.7261 21.511C31.7285 22.7536 31.7426 24.0171 31.7197 25.2596C31.7131 25.6196 31.6283 26.0196 31.3494 26.2693C30.8861 26.476 25.5178 26.5415 25.4487 26.1051C25.2407 24.7924 25.332 22.8768 25.3319 21.4951L25.331 13.4393L25.3286 6.19858C25.3256 5.27639 25.2093 1.79153 25.4643 1.09325C25.8908 0.689595 27.7176 0.789576 28.3631 0.790683C29.1132 0.79198 30.7181 0.685467 31.2786 1.13791C31.4792 1.5614 31.4054 4.16098 31.4167 4.81982C32.5866 1.90957 34.0891 0.516111 37.2895 0.324344Z" fill="var(--fill-0, #191715)"/>
<path id="Vector_2" d="M116.722 0.324679L116.758 0.321608C119.101 0.140348 121.664 0.974336 123.461 2.51653C126.303 4.9584 127.417 8.58511 127.712 12.2102C128.266 19.0231 125.21 26.3938 117.574 26.9312C117.5 26.9399 117.427 26.9462 117.353 26.9502C103.653 27.6342 102.251 1.00005 116.722 0.324679ZM117.612 21.8996C120.273 21.1308 120.748 18.134 120.795 15.6804C120.85 12.8006 121.427 4.55657 116.741 5.22332C112.395 6.01006 113.404 15.0838 113.881 18.1968C114.211 20.3442 115.225 22.1108 117.612 21.8996Z" fill="var(--fill-0, #191715)"/>
<path id="Vector_3" d="M21.2798 29.0251C22.0462 29.0407 25.7263 31.2118 26.8275 31.7408C30.1168 33.3259 33.5111 34.683 36.9863 35.8025C53.6984 41.0183 70.7771 41.0972 87.3366 35.2674C88.8688 34.728 91.1862 33.5685 92.7053 33.3754C95.6188 34.3894 92.1772 36.4188 91.0134 37.0913C81.1374 43.4106 68.1858 46.1988 56.5282 45.4111C47.1534 44.7775 37.6088 41.7677 29.6136 36.8014C26.5797 34.8887 23.5264 32.7515 20.9874 30.2166C20.5191 29.7492 20.8454 29.3032 21.2798 29.0251Z" fill="var(--fill-0, #191715)"/>
<path id="Vector_4" d="M87.3487 0.742206C91.8311 0.54521 96.5457 0.867225 101.051 0.727724C101.684 0.708095 102.997 0.682718 103.557 0.906354C103.743 1.10259 103.838 1.43488 103.852 1.68611C103.892 2.33698 103.95 4.57514 103.749 5.07043C103.458 5.78618 102.48 7.09586 102.021 7.7535C101.061 9.13817 100.094 10.5176 99.118 11.8917C97.7102 13.8847 96.2659 16.1131 94.7813 18.0334C96.5281 18.0227 103.14 18.3857 104.236 20.7808C104.485 21.3248 104.393 24.5323 104.226 25.2654C103.985 26.3227 102.256 25.2596 101.769 25.0249C101.066 24.8211 100.309 24.5498 99.638 24.3534C95.2259 23.0617 90.9947 23.89 86.8645 25.6771C86.3745 25.8891 85.8977 25.4756 85.9073 24.9599C85.9387 23.318 85.7307 21.4586 86.0728 19.8645C86.5745 18.4592 88.0943 16.9097 88.8531 15.6064C91.0694 12.3485 93.438 9.13913 95.6236 5.87756C93.1875 5.99172 90.6226 5.83807 88.1763 5.88892C86.8426 5.95516 86.5291 5.3599 86.7019 4.10893C86.8623 2.94889 86.2471 1.39299 87.3487 0.742206Z" fill="var(--fill-0, #191715)"/>
<path id="Vector_5" d="M93.5681 27.5174C95.0535 27.5534 100.395 27.0942 100.758 29.2054C101.267 32.164 99.8223 35.9839 98.4109 38.5684C97.8249 39.6414 96.0166 42.0268 94.7957 42.3364C94.5481 42.2908 94.6199 42.3397 94.4763 42.1588C94.2727 41.3968 94.9773 39.951 95.2886 39.162C95.9697 37.502 96.949 34.4298 97.0559 32.637C97.0962 31.9613 96.8633 31.5272 96.3982 31.0659C93.1067 30.1402 89.8035 30.9633 86.4658 31.0609C86.2695 31.0667 86.0571 30.9967 85.8872 30.9031C85.6909 30.6428 85.7334 30.4304 85.9751 30.1985C87.7952 28.4544 91.1511 27.7308 93.5681 27.5174Z" fill="var(--fill-0, #191715)"/>
<path id="Vector_6" d="M71.8726 -8.27349e-06H72.0377C72.5238 0.110887 73.4271 0.181316 73.9435 0.234405C76.5634 0.504052 79.4696 1.83345 80.4921 4.43545C81.2926 6.47395 81.1403 9.09145 81.1381 11.2895L81.1307 15.9083C81.1293 17.0712 81.1007 17.9309 81.253 19.0916C81.4252 20.3985 83.1222 21.9286 83.1493 22.7776C83.0592 23.004 82.7985 23.3561 82.619 23.4863C81.7489 24.1161 79.4403 26.6538 78.434 26.5623C77.5719 26.484 75.9525 24.053 75.434 23.412C73.2143 25.65 71.7048 26.5625 68.5162 26.7377C64.0204 27.0123 60.8996 24.4322 60.7521 19.8399C60.5648 14.6874 64.1245 11.6297 68.9428 10.8923C70.8888 10.5946 72.5402 10.3251 74.5543 10.2414C74.569 9.30187 74.6232 8.31479 74.4064 7.3928C74.2189 6.5955 73.816 5.87614 73.1022 5.44286C72.2501 4.9255 71.1554 4.92457 70.2137 5.15963C68.2096 5.65987 68.3117 6.75302 67.408 8.22933C67.2883 8.42502 67.1785 8.5782 66.9423 8.62774C66.5582 8.70829 62.1513 8.23007 61.8645 8.0324C61.6882 7.91103 61.5896 7.70619 61.5611 7.49855C61.4077 6.38278 62.3708 4.60179 63.0211 3.72019C64.3419 1.92941 66.4632 0.807088 68.6274 0.409341C69.7041 0.211453 70.7931 0.161428 71.8726 -8.27349e-06ZM69.3137 21.7829C71.6676 22.5549 73.4381 20.8996 74.1368 18.7559C74.6481 17.1858 74.5565 15.6076 74.5587 13.983C74.2906 13.989 73.4791 13.9897 73.2543 14.0269C71.5061 14.2391 69.703 14.4343 68.5169 15.9223C67.2396 17.5248 67.2029 20.8431 69.3137 21.7829Z" fill="var(--fill-0, #191715)"/>
<path id="Vector_7" d="M10.6991 0H10.8772C13.9151 0.473049 16.5503 0.464604 18.6779 3.30955C20.191 5.33297 19.9482 8.82226 19.9455 11.2867L19.939 16.0934C19.9392 17.708 19.7947 18.8634 20.6124 20.4158C21.5274 22.1531 22.8007 22.3429 20.9805 23.8881C17.2276 27.074 17.4687 27.8881 14.2375 23.3743C11.5367 26.8492 5.67327 27.9821 2.02181 25.2963C1.01826 24.5582 0.55158 23.6331 0 22.5513V16.437C0.424024 15.5879 0.930725 14.5839 1.57397 13.8942C3.5977 11.7244 6.29864 11.0595 9.11851 10.6776C10.6381 10.4719 11.6802 10.3185 13.2693 10.2424C13.2731 9.40851 13.3447 8.2193 13.2209 7.46045C12.6572 4.00202 7.44185 4.36532 6.56312 7.45987C6.44743 7.86729 6.20656 8.3244 5.96952 8.65333C4.85246 8.69356 1.71438 8.33495 0.674142 8.00632C-0.366177 7.67768 1.30735 4.40459 1.79558 3.75383C4.20466 0.542754 7.16103 0.514905 10.6991 0ZM7.9585 21.7162C10.2768 22.6098 12.0944 21.0862 12.8753 18.955C13.4352 17.4269 13.2769 15.6018 13.2727 13.9867C12.9815 13.9928 12.338 13.9892 12.0757 14.0278C10.3121 14.2412 8.54854 14.4179 7.32678 15.9067C6.10336 17.3973 5.99952 20.7736 7.9585 21.7162Z" fill="var(--fill-0, #191715)"/>
<path id="Vector_8" d="M137.276 5.2783C137.552 4.73712 137.829 4.12601 138.104 3.54574C139.703 0.16802 143.956 -0.448108 147.044 1.06985C148.774 1.92016 149.464 3.32926 149.997 5.14935V26.3345C149.094 26.5179 145.222 26.466 144.272 26.215C143.782 26.0856 143.946 21.9999 143.947 21.3178L143.952 13.1105C143.952 11.5835 144.029 9.60603 143.642 8.14337C143.497 7.648 142.941 6.66744 142.406 6.49861C136.852 4.74969 137.669 13.3353 137.669 16.0928L137.68 22.9697C137.703 26.8612 138.01 26.414 134.25 26.3895C133.509 26.3847 132.114 26.5441 131.482 26.2133C131.093 25.5966 131.212 22.6266 131.211 21.7912L131.21 15.0636L131.215 6.20646C131.214 5.32283 131.077 1.68065 131.378 1.13584C132.036 0.595089 134.018 0.837275 134.898 0.787965C135.517 0.753299 136.677 0.749649 137.158 1.1518C137.381 1.58298 137.275 4.57931 137.276 5.2783Z" fill="var(--fill-0, #191715)"/>
</g>
<defs>
<clipPath id="clip0_0_84">
<rect width="150" height="45.6599" fill="white"/>
</clipPath>
</defs>
</svg>
