<svg preserveAspectRatio="none" width="100%" height="100%" overflow="visible" style="display: block;" viewBox="0 0 220 46.0884" fill="none" xmlns="http://www.w3.org/2000/svg">
<g id="image 38 [Vectorized]" clip-path="url(#clip0_0_4)">
<path id="Vector" d="M50.523 20.0375L50.875 20.1131L50.9594 20.2601C50.9286 20.459 50.8534 20.6203 50.7423 20.7867C50.0515 21.8221 49.1157 22.6797 48.2886 23.6023C46.6945 25.3803 45.1169 27.1691 43.4892 28.9167C42.0015 30.514 40.1916 32.9926 38.5571 34.2975C35.4795 36.7545 25.7434 37.1952 21.5238 38.0552C21.4905 38.064 21.2523 38.0535 21.1999 38.052L21.0561 37.8644C21.0547 37.2467 22.4653 35.0688 22.8485 34.4064C24.0169 32.4113 25.1001 30.3674 26.095 28.2804C26.7366 26.9493 27.3573 25.3948 28.0974 24.1623C29.2162 23.4504 31.6987 23.2435 33.1074 22.9818C36.4165 22.3408 39.7367 21.7577 43.0662 21.2325C45.471 20.8472 48.1581 20.2126 50.523 20.0375Z" fill="var(--fill-0, #191715)"/>
<path id="Vector_2" d="M101.135 20.142C101.954 20.146 103.393 20.1576 104.095 20.1295C109.428 19.9159 112.58 20.1473 111.698 26.5826C111.552 27.6525 110.832 28.1177 110.008 28.6738C112.821 29.6883 112.439 32.2359 112.253 34.7149C112.207 35.3391 111.899 35.9506 111.576 36.4746C109.347 38.4375 107.365 37.8558 104.595 37.9229C103.072 37.9599 101.531 37.9184 100.006 37.9181C99.9345 32.0509 100 26.0465 99.9994 20.1679L101.135 20.142ZM108.498 34.7012C109.125 33.8984 109.236 31.0114 108.296 30.4413C107.192 29.7719 104.769 30.1031 103.421 30.0886C103.416 31.5991 103.472 33.627 103.392 35.094C104.76 35.1108 107.388 35.2799 108.498 34.7012ZM107.959 27.1206C108.414 26.3372 108.625 23.6357 107.623 23.2112C106.599 22.7773 104.567 22.9944 103.405 23.0195L103.417 27.5487C104.536 27.558 107.112 27.7378 107.959 27.1206Z" fill="var(--fill-0, #191715)"/>
<path id="Vector_3" d="M62.3046 20.1431C63.7464 20.132 65.1882 20.1415 66.6297 20.1712C68.7001 25.6213 70.2149 32.5055 72.3009 37.9071L68.5462 37.9166C68.3445 36.9039 67.8011 35.3132 67.4761 34.2779L66.4126 34.2731L60.9993 34.2832C60.6647 35.4955 60.2567 36.7255 59.8669 37.923L56.223 37.9148C57.8532 33.0816 60.162 25.3721 61.8659 20.3005C61.9144 20.1561 62.1451 20.1615 62.3046 20.1431ZM61.8015 31.3514L64.4767 31.3372L66.5953 31.3401C66.3529 30.4245 64.3981 23.3951 64.1782 23.1769C63.5531 25.6995 62.644 28.891 61.8015 31.3514Z" fill="var(--fill-0, #191715)"/>
<path id="Vector_4" d="M76.1121 20.2296C76.4011 20.1843 76.6484 20.1109 76.9046 20.2474C77.1732 20.7 77.0742 24.475 77.0864 25.3269C78.4302 24.8124 80.4492 24.5189 81.8647 24.7239C84.5641 25.1362 84.9467 27.911 84.8236 30.1334C84.6502 33.263 85.5912 35.5404 82.6562 37.6027C79.7646 38.6618 76.6571 38.2779 73.6862 37.7723L73.6895 20.6619C74.3219 20.5001 75.4366 20.3449 76.1121 20.2296ZM77.0798 28.2351C77.0633 30.1838 76.9625 33.4578 77.1125 35.3323C77.7702 35.357 78.6381 35.4135 79.2794 35.394C79.7287 35.3109 80.9106 35.087 81.0971 34.6216C81.7036 33.1074 81.4678 31.1532 81.4777 29.5349C81.4864 28.1183 81.0845 27.3732 79.5386 27.524C78.7918 27.6736 77.7752 27.9057 77.0798 28.2351Z" fill="var(--fill-0, #191715)"/>
<path id="Vector_5" d="M200.62 24.7428C202.227 24.517 203.224 24.6547 204.23 25.9762C205.754 25.1788 207.532 24.696 209.249 24.6431C212.945 24.5293 212.386 28.8843 212.381 31.3328L212.362 37.9216L209.008 37.9172C209.062 36.2848 209.284 29.4883 208.814 28.356C208.73 28.1519 208.662 28.0551 208.45 27.9718C207.43 27.5701 205.622 28.5154 204.672 28.9236C204.601 31.3971 204.663 34.1645 204.661 36.6612L204.663 37.9185L201.359 37.9177C201.286 34.9551 201.45 31.9707 201.292 29.0095C201.175 26.8033 198.104 28.4717 196.983 28.9599L196.969 37.9216L193.69 37.9162L193.687 25.3378C194.536 25.2008 195.39 24.8436 196.162 25.1088C196.506 25.4381 196.427 25.4354 196.583 25.9363C198.032 25.2151 199.023 24.9738 200.62 24.7428Z" fill="var(--fill-0, #191715)"/>
<path id="Vector_6" d="M184.4 24.7407C190.627 23.9243 191.845 27.2921 191.452 32.5205C191.206 35.7952 190.96 37.307 187.439 38.1317L187.4 38.1391C184.838 38.6231 181.298 38.0548 180.41 35.2406C180.364 35.0912 180.231 34.6888 180.229 34.5459C180.192 30.2291 178.822 25.6867 184.4 24.7407ZM186.321 35.3526C188.644 34.681 188.045 33.4697 188.114 31.4662C188.198 29.0653 188.294 27.3491 185.273 27.5201C183.295 28.0889 183.412 28.8371 183.411 30.7288C183.41 33.0168 182.886 35.8176 186.321 35.3526Z" fill="var(--fill-0, #191715)"/>
<path id="Vector_7" d="M118.907 24.7433C120.303 24.5304 122.761 24.6867 123.962 25.4942C124.81 26.064 125.626 27.1515 125.744 28.1725C125.983 30.2411 126.28 34.4637 125.135 36.2185C124.275 37.5339 123.092 37.8748 121.735 38.1754C120.119 38.428 117.8 38.2581 116.428 37.2852C115.654 36.7821 114.697 35.3889 114.685 34.4204C114.632 30.1396 113.387 25.6251 118.907 24.7433ZM120.784 35.3801C121.189 35.2411 122.12 34.9594 122.288 34.5323C122.701 33.4913 122.584 32.1952 122.604 31.0955C122.644 28.8125 122.606 27.2765 119.742 27.5202C117.826 28.0644 117.844 28.8931 117.873 30.7675C117.91 33.2491 117.282 35.572 120.784 35.3801Z" fill="var(--fill-0, #191715)"/>
<path id="Vector_8" d="M132.259 24.7416C133.707 24.5343 136.116 24.6824 137.347 25.5253C138.121 25.9892 139.078 27.3334 139.113 28.2929C139.268 32.6314 140.416 37.1248 134.987 38.1863C132.417 38.5929 128.14 37.7262 128.025 34.373C127.881 30.1828 126.846 25.5666 132.259 24.7416ZM134.115 35.3592C134.583 35.2215 135.586 34.896 135.716 34.3503C136.119 32.6527 136.066 30.3828 135.741 28.6641C135.534 27.5683 133.934 27.4765 133.057 27.5223C132.612 27.6461 131.657 27.945 131.496 28.4343C131.013 29.8991 131.231 31.6685 131.239 33.1993C131.247 35.0186 132.454 35.502 134.115 35.3592Z" fill="var(--fill-0, #191715)"/>
<path id="Vector_9" d="M91.0815 24.7406C97.7312 24.39 97.5664 27.2864 97.4968 32.7583C95.1077 32.7343 92.7184 32.7327 90.3292 32.7534C90.3451 34.1646 90.4066 35.3448 92.2331 35.5007C93.6387 35.6206 95.1629 35.1749 96.5652 34.9503C96.9083 35.4536 96.7915 36.9722 96.7803 37.6501C96.1601 37.7904 95.5375 37.92 94.9128 38.0388C90.0166 38.9298 86.6164 37.6587 86.9221 32.1595C87.1263 28.4844 86.345 25.5622 91.0815 24.7406ZM90.3405 29.9882L93.1605 29.987L94.359 29.9915C94.3498 28.1453 93.8908 27.1151 91.7623 27.4108C90.3426 27.987 90.3383 28.5471 90.3405 29.9882Z" fill="var(--fill-0, #191715)"/>
<path id="Vector_10" d="M144.11 20.3354C144.414 20.2855 144.587 20.2488 144.819 20.4301C144.964 21.1146 144.914 23.2403 144.914 24.0532L144.905 30.8011C146.227 29.0222 148.294 26.8699 149.784 25.0355C150.91 24.988 152.283 25.0257 153.427 25.0281C152.816 25.661 152.157 26.5419 151.578 27.2291C150.422 28.5997 149.255 29.9718 148.118 31.3567C149.182 32.863 151.377 35.2027 152.661 36.774C153.011 37.1429 153.366 37.6065 153.688 38.0071C152.44 38.0156 151.192 38.013 149.944 37.9994C148.351 36.201 146.49 33.8602 144.907 31.9797L144.903 37.9194L141.61 37.9165L141.599 20.8807C142.49 20.639 143.209 20.5005 144.11 20.3354Z" fill="var(--fill-0, #191715)"/>
<path id="Vector_11" d="M157.756 24.7424C159.028 24.5949 161.471 24.7343 162.652 25.0981C162.68 25.9912 162.656 26.938 162.65 27.8353C161.861 27.6179 156.814 26.5293 157.536 28.8995C158.054 30.6028 163.066 29.8856 163.246 32.539C163.471 35.8744 163.462 37.5597 159.847 38.2344C157.667 38.3484 156.688 38.136 154.593 37.7144C154.58 37.1414 154.503 35.7519 154.693 35.2504C155.828 34.5983 160.485 37.0883 160.04 33.8694C160.011 33.6633 159.849 33.4168 159.669 33.3048C158.027 32.2504 154.448 32.4811 154.263 29.7901C154.043 26.5898 154.51 25.2011 157.756 24.7424Z" fill="var(--fill-0, #191715)"/>
<path id="Vector_12" d="M174.272 24.7455C175.066 24.6395 176.076 24.7509 176.888 24.6874C178.714 24.5443 178.333 26.6521 178.305 27.8812C172.584 26.63 173.34 28.6351 173.391 33.339C173.422 36.1878 176.426 35.3353 178.258 35.0855C178.316 35.6058 178.303 36.4616 178.31 37.0104C178.309 37.4906 178.382 37.5496 178.157 37.9349C178.01 38.0386 177.914 38.0804 177.735 38.1056C174.593 38.5487 170.617 38.4754 170.08 34.495C169.934 33.4256 169.962 32.341 169.967 31.267C169.987 27.5551 169.955 25.3471 174.272 24.7455Z" fill="var(--fill-0, #191715)"/>
<path id="Vector_13" d="M50.4575 14.9791C50.664 15.0188 50.7188 15.0582 50.9013 15.1652L50.9044 15.3884C50.4818 15.9855 49.4157 17.1614 48.762 17.3623C42.3931 19.3194 35.9186 18.8861 29.6834 21.5484L29.5319 21.5578C29.0434 21.2021 29.7593 20.3163 30.0321 19.9098C31.6501 17.4993 34.0609 17.4645 36.6408 17.0168C41.221 16.2221 45.875 15.7143 50.4575 14.9791Z" fill="var(--fill-0, #191715)"/>
<path id="Vector_14" d="M165.303 34.6461C168.916 34.5328 168.331 34.5922 168.321 38.0362C167.364 37.9905 166.264 38.019 165.295 38.0218L165.303 34.6461Z" fill="var(--fill-0, #191715)"/>
<path id="Vector_15" d="M215.05 25.4031C215.585 25.3807 216.334 25.3131 216.835 25.4394L216.948 25.6351L216.857 25.8634C216.657 25.8854 216.457 25.9055 216.256 25.9238C216.113 26.216 216.164 27.2479 216.167 27.6369L216.115 27.9268L215.89 27.9966C215.335 27.5593 215.862 26.4787 215.58 25.9357L215.028 25.8457C214.927 25.6192 214.949 25.6994 215.05 25.4031Z" fill="var(--fill-0, #191715)"/>
<path id="Vector_16" d="M5.79916 0H6.29246C8.65503 2.07688 11.0102 4.35107 13.2946 6.51994C16.2921 9.36592 20.0059 11.9215 20.2947 16.4091C20.3185 16.83 20.3339 17.2513 20.3407 17.6729C20.4497 17.5442 20.6287 17.34 20.723 17.2049C24.275 12.1137 25.9149 13.3617 30.8721 15.5016C26.8062 19.2117 25.4526 24.1662 22.663 28.9179C19.2395 34.7495 14.834 41.3238 9.99567 46.0884H9.70589C9.33887 44.5809 8.58944 43.184 8.33091 41.5354C5.55386 41.543 2.7768 41.528 0 41.4902V41.373C2.67955 39.4749 8.10541 35.5383 10.3953 33.3221C8.83507 31.8925 7.26652 30.2938 5.77257 28.7862C4.13801 27.0348 1.59353 25.0464 1.12544 22.581C0.807556 20.9068 0.97105 19.069 0.953004 17.3823C0.935175 15.7158 0.96532 14.0664 0.961755 12.4184L0.946064 6.63534C0.944387 5.95213 0.807899 3.22051 1.22185 2.88628C2.13522 2.9462 5.3026 6.2693 6.17142 7.09926L14.4278 15.0265C15.8703 16.4281 17.781 18.4219 19.2474 19.6647C17.8594 15.1418 17.4151 14.4644 14.1308 11.165C12.6844 9.70224 11.2213 8.25592 9.74189 6.82634C8.50821 5.6351 6.87728 4.11485 5.81648 2.81612C5.76487 1.96047 5.7968 0.872799 5.79916 0Z" fill="var(--fill-0, #191715)"/>
<path id="Vector_17" d="M218.668 27.2236C218.84 26.5479 218.915 25.5539 219.6 25.3419C220.184 25.8863 219.693 26.8848 220 27.4819V28.0669L219.421 27.9035C219.245 27.5996 219.49 27.1139 219.317 26.7627C219.262 26.8739 219.207 26.9845 219.15 27.0945C218.954 27.4697 218.868 27.6574 218.504 27.7732C218.269 27.6301 218.138 27.1522 218.031 26.8714C217.77 27.0711 218.054 27.5629 217.738 28.0104L217.494 27.9979L217.327 27.7861C217.303 27.2028 217.259 25.8113 217.727 25.4507C218.244 25.5955 218.51 26.7399 218.668 27.2236Z" fill="var(--fill-0, #191715)"/>
</g>
<defs>
<clipPath id="clip0_0_4">
<rect width="220" height="46.0884" fill="white"/>
</clipPath>
</defs>
</svg>
