<svg preserveAspectRatio="none" width="100%" height="100%" overflow="visible" style="display: block;" viewBox="0 0 200 47.8972" fill="none" xmlns="http://www.w3.org/2000/svg">
<g id="image 37 [Vectorized]">
<path id="Subtract" d="M149.968 12.7015C150.904 12.5601 152.528 12.7188 153.453 12.9359C156.101 13.5649 158.384 15.2352 159.785 17.5687C162.91 22.6631 161.768 30.6318 156.441 33.8246C152.774 36.0231 147.357 35.9786 144.227 32.8402C143.434 32.0453 142.982 31.3216 142.411 30.3773L142.414 42.3236L194.141 42.3197V44.3773L65.9463 44.3744L5.8623 44.3753L5.85938 42.3226L139.972 42.3207L139.975 15.0687L136.294 15.0619L136.303 12.974L142.418 12.9681L142.406 17.5794C144.273 14.5749 146.428 13.1007 149.968 12.7015ZM150.352 14.7611C139.048 15.6027 139.787 33.4046 151.34 33.1224C159.776 32.4722 161.638 21.3467 156.121 16.6908C154.505 15.3529 152.447 14.6653 150.352 14.7611Z" fill="var(--fill-0, #191715)"/>
<path id="Subtract_2" d="M12.202 3.51844C12.2188 8.14307 12.209 12.7678 12.1727 17.3925C14.7105 13.5095 17.9655 11.8245 22.661 12.5087C25.3152 12.8878 27.707 14.3132 29.3016 16.4677C31.2129 19.0486 31.8251 22.5225 31.3221 25.6532C30.7827 29.0108 29.3191 31.3267 26.6337 33.3134C24.3675 34.7432 21.6604 35.3064 19.0116 34.8993C15.8656 34.4374 14.0118 32.8642 12.1815 30.4188L12.2069 34.6952H5.86608L5.86413 32.5975L9.76061 32.6005L9.75964 5.62195C8.51096 5.58649 7.12797 5.61754 5.86901 5.61902L5.86315 3.51746L12.202 3.51844ZM25.6727 15.997C24.2548 14.8197 21.8076 14.1759 19.9745 14.4071C8.14518 16.0316 10.5587 34.3268 21.5399 32.9501C29.6591 31.9892 31.4197 20.7683 25.6727 15.997Z" fill="var(--fill-0, #191715)"/>
<path id="Subtract_3" d="M124.645 12.7588C130.794 11.8749 136.49 16.1556 137.348 22.3057C138.207 28.4557 133.9 34.1314 127.744 34.9639C121.625 35.7914 115.987 31.5181 115.134 25.4043C114.281 19.2906 118.532 13.6379 124.645 12.7588ZM127.455 33.0655C138.199 30.7701 136.421 13.7647 125.224 14.628C114.307 16.5471 115.909 34.1632 127.455 33.0655Z" fill="var(--fill-0, #191715)"/>
<path id="Subtract_4" d="M66.1694 12.7624C72.289 11.8719 77.9742 16.1019 78.8774 22.2174C79.7807 28.333 75.5608 34.0246 69.4447 34.9401C63.3111 35.8581 57.5967 31.6251 56.6908 25.4919C55.785 19.3586 60.0318 13.6552 66.1694 12.7624ZM69.0356 33.0612C79.7303 30.6936 77.9937 13.802 66.7485 14.6247C56.0886 16.4985 57.1509 33.9782 69.0356 33.0612Z" fill="var(--fill-0, #191715)"/>
<path id="Subtract_5" d="M42.3182 12.7635C48.4598 11.8677 54.1614 16.1301 55.0379 22.2722C55.9142 28.4142 51.6323 34.0994 45.4852 34.9558C39.3657 35.8083 33.7093 31.5517 32.8368 25.4373C31.9644 19.3231 36.2045 13.6553 42.3182 12.7635ZM45.1522 33.0613C55.9057 30.7726 54.1111 13.7515 42.91 14.6258C32.1161 16.5715 33.4391 34.0215 45.1522 33.0613Z" fill="var(--fill-0, #191715)"/>
<path id="Subtract_6" d="M180.737 12.4631C183.429 12.2275 187.051 12.3689 189.069 14.3957C189.757 15.087 190.229 15.9648 190.425 16.9201C190.697 18.2059 190.576 21.251 190.573 22.6955L190.581 32.5998L194.139 32.5969L194.143 34.7014L188.176 34.6985L188.183 31.5959C183.997 35.078 177.662 37.1711 174.245 31.551C171.689 26.3 176.106 21.7765 181.385 21.8615C184.197 21.9069 185.692 22.46 188.178 23.6037C188.188 20.356 189.076 15.2753 184.953 14.3947C181.199 13.593 177.571 14.2292 175.713 17.8508L173.872 17.341C175.507 14.2259 177.253 12.9664 180.737 12.4631ZM188.193 25.6457C185.889 24.294 183.633 23.4187 180.905 23.7512C179.267 24.0428 177.83 24.5863 176.834 26.0061C176.129 27.0283 175.861 28.2889 176.084 29.51C176.291 30.6436 176.944 31.6466 177.898 32.2951C179.505 33.3925 181.297 33.2578 183.088 32.7688C185.029 32.0808 186.858 31.1139 188.192 29.4934L188.193 25.6457Z" fill="var(--fill-0, #191715)"/>
<path id="Vector" d="M78.3112 3.51769L84.7073 3.51598L84.7024 23.125C88.3795 20.4306 92.4371 17.6696 96.2 15.0583L92.8065 15.0591L92.809 12.9733L101.876 12.9769L101.87 15.0654L99.0878 15.0609L87.6501 23.1845C90.5553 25.5015 94.1245 28.7979 96.9889 31.2927L98.4797 32.6037L102.29 32.5995L102.288 34.6971L97.5157 34.6961L84.7055 23.563L84.7043 32.597L88.701 32.5982L88.7003 34.6961L78.313 34.6947L78.3144 32.5972L82.2749 32.6011L82.2695 5.62243C80.9981 5.58628 79.596 5.61581 78.3147 5.61661L78.3112 3.51769Z" fill="var(--fill-0, #191715)"/>
<path id="Vector_2" d="M109.778 6.25081C109.897 6.86344 109.832 12.0119 109.827 12.972L114.391 12.9694L114.39 15.0604L109.817 15.0657C109.875 20.3673 109.71 25.6841 109.912 30.9796C110.019 33.7888 112.513 33.0115 114.387 32.5682L114.389 34.7097L113.004 35.0475C110.32 35.3975 107.823 35.2093 107.504 31.9394C107.326 30.1175 107.418 28.0765 107.42 26.2399L107.441 15.0697L103.554 15.0613L103.56 12.9702L107.428 12.975L107.424 8.12473C108.16 7.5064 109.019 6.85431 109.778 6.25081Z" fill="var(--fill-0, #191715)"/>
<path id="Vector_3" d="M162.663 12.9741L168.882 12.9723L168.874 32.598L172.577 32.5936L172.58 34.6977L168.737 34.6949L162.665 34.7034L162.671 32.5923L166.494 32.5978L166.498 15.067L162.661 15.0605L162.663 12.9741Z" fill="var(--fill-0, #191715)"/>
<path id="Vector_4" d="M166.34 3.13818C167.299 2.77667 168.369 3.25153 168.744 4.20412C169.119 5.15682 168.658 6.23382 167.712 6.62179C167.086 6.87769 166.372 6.77745 165.842 6.35949C165.311 5.94153 165.048 5.27063 165.15 4.60349C165.254 3.93646 165.708 3.37652 166.34 3.13818Z" fill="var(--fill-0, #191715)"/>
</g>
</svg>
