<svg preserveAspectRatio="none" width="100%" height="100%" overflow="visible" style="display: block;" viewBox="0 0 212 39" fill="none" xmlns="http://www.w3.org/2000/svg">
<g id="image 22 [Vectorized]">
<path id="Vector" d="M16.2539 2.34725C16.6928 2.32879 17.1317 2.31549 17.5709 2.30734C20.1013 2.26949 22.639 2.34721 25.211 2.30027C30.9277 2.19593 37.0816 2.24162 41.6033 6.34091C44.4924 9.03701 43.7787 13.207 43.7881 16.8402C43.8123 26.1508 32.2301 24.9186 26.2326 24.9185L8.39777 24.9362C8.58344 28.4102 10.3243 29.1431 13.5732 29.6702C15.3216 29.9762 17.1552 29.9784 18.9339 30.0353C21.5628 30.1206 24.1922 30.1874 26.8219 30.2357C26.8102 31.2663 26.8327 32.3325 26.8096 33.3478C26.7116 34.2676 27.3855 36.6244 25.7898 36.5427C18.6946 36.1798 10.0435 37.5356 4.10046 32.8037C2.29918 31.2163 0.678128 28.7911 0.640072 26.2992C0.58885 22.9458 0.655547 19.5329 0.62141 16.1706C0.606687 14.7208 0.497106 12.3071 0.848242 10.9539C2.55697 4.36831 10.4142 2.71392 16.2539 2.34725ZM24.9057 18.9125C26.9683 18.9198 31.6196 19.1757 33.3847 18.7605C34.1701 18.5757 34.9331 18.1935 35.5088 17.6215C36.124 17.0101 36.4399 16.274 36.4405 15.4048C36.4415 14.0591 36.7846 11.3669 35.8089 10.3939C33.4928 8.08454 24.1655 8.55725 20.7976 8.5872C20.5005 8.58984 20.206 8.5963 19.9095 8.61782C16.7822 8.81625 11.3067 8.65907 8.87435 10.9907C7.93338 11.8927 8.10472 13.6469 8.13948 14.8357C8.16942 15.8596 7.8779 17.6527 8.56578 18.5125C9.65219 19.113 13.7148 18.9216 15.1244 18.9213L24.9057 18.9125Z" fill="var(--fill-0, #3B3A39)"/>
<path id="Vector_2" d="M103.178 2.34534C103.442 2.33521 103.708 2.32651 103.973 2.31924C106.5 2.2522 109.146 2.31454 111.662 2.29758C116.505 2.26319 121.055 2.0846 125.502 4.26709C130.764 6.84958 130.976 9.85819 130.825 15.158C130.754 17.6114 130.939 19.9749 128.926 21.9249C124.801 25.9212 118.445 24.7091 113.24 24.9163C107.254 25.004 101.308 24.8319 95.3513 24.9429C95.67 28.3576 97.0404 29.004 100.321 29.6513C102.002 29.8836 102.969 29.8681 104.654 29.9546C107.692 30.1096 110.735 30.199 113.778 30.2225L113.776 36.4344C113.707 36.4419 113.636 36.4481 113.566 36.4528C111.961 36.5596 109.54 36.5035 107.843 36.491C102.325 36.4503 95.3664 36.496 90.9508 32.6982C89.2388 31.2257 87.6629 28.5761 87.6518 26.3428C87.6425 24.4806 87.5849 21.8864 87.6471 20.0709C87.7228 17.8578 87.42 12.9515 87.8283 11.0463C88.1355 9.64163 88.7951 8.33829 89.7447 7.25901C92.8757 3.69873 98.6769 2.63543 103.178 2.34534ZM111.818 18.9158C114.427 18.9217 117.822 19.0867 120.371 18.7706C122.444 18.5135 123.804 16.2068 123.516 14.2724C123.369 13.1564 123.824 11.2572 122.731 10.3122C119.669 8.12128 113.104 8.68518 109.402 8.57688C108.635 8.55448 107.593 8.5893 106.968 8.63167C103.806 8.78333 98.375 8.67032 95.922 10.9432C94.9307 11.8821 95.1279 13.661 95.155 14.8324C95.1719 15.5633 94.99 18.1057 95.4844 18.4466C96.5146 19.1569 100.79 18.9267 101.952 18.9258L111.818 18.9158Z" fill="var(--fill-0, #3B3A39)"/>
<path id="Vector_3" d="M185.379 2.77064C186.89 2.7619 188.496 2.67891 189.986 2.86231C190.389 2.91181 190.729 3.37106 190.726 3.76295C190.71 5.41198 190.688 7.06203 190.683 8.71382C186.371 10.4822 179.118 7.10185 175.584 11.4594C175.047 14.1037 175.531 15.4692 178.325 16.1381C180.111 16.5656 182.124 16.431 183.964 16.4293L191.831 16.4199C196.723 16.4145 203.382 16.1236 207.128 19.7381C210.307 22.696 210.174 30.2531 206.975 33.1268C202.251 37.3692 193.979 36.582 188 36.5829L174.437 36.5804C172.769 36.5938 170.334 36.7598 168.84 36.2664L168.817 30.6434C170.04 30.0393 173.47 30.2335 174.976 30.2341L189.428 30.242C191.874 30.2434 194.749 30.3764 197.171 30.1057C199.467 29.8491 201.455 29.0854 201.582 26.4801C201.79 22.1966 195.05 22.8928 192.151 22.8949L184.173 22.9045C179.359 22.9108 173.281 23.0344 169.535 19.403C167.715 17.6402 167.682 15.7131 167.573 13.4072C167.061 2.69257 177.556 2.77756 185.379 2.77064Z" fill="var(--fill-0, #3B3A39)"/>
<path id="Vector_4" d="M77.6245 2.29725L85.051 2.30198C84.9453 5.47793 85.0551 8.67596 85.019 11.8547C84.9885 14.5427 85.3405 16.9127 83.982 19.3634C81.4553 23.2407 73.9099 25.4831 69.4864 25.2488C69.5943 28.9071 69.5275 32.8791 69.5333 36.5695C67.0109 36.4882 64.4452 36.6063 61.9548 36.4898C61.8696 32.8494 61.9419 28.9135 61.9436 25.2509C57.5531 25.1378 51.9366 23.8491 48.6077 20.7706C45.872 18.2406 46.399 14.5875 46.402 11.1669L46.3979 2.30238L53.7368 2.29651L53.7209 10.2643C53.7187 11.8957 53.4134 15.2223 54.5731 16.2693C56.9244 18.3921 62.6504 18.9455 65.7231 18.9086C69.1219 18.8678 74.1895 18.4645 76.8354 16.2557C77.9591 15.288 77.6398 12.0452 77.638 10.5465L77.6245 2.29725Z" fill="var(--fill-0, #3B3A39)"/>
<path id="Vector_5" d="M151.814 2.35281C152.743 2.32812 153.672 2.32756 154.6 2.35111C154.552 4.45079 154.55 6.5513 154.596 8.65105C151.06 8.6343 146.053 8.22818 142.877 9.99758C140.675 11.2247 141.3 14.2922 141.29 16.474L141.293 29.3928C141.294 31.2304 141.415 34.8954 141.084 36.5784L136.502 36.5814L133.76 36.5826C133.699 36.095 133.668 35.5644 133.666 35.0724C133.639 28.6383 133.685 22.2039 133.651 15.7696C133.643 14.1165 133.55 12.2014 133.876 10.6018C134.176 9.08587 134.902 7.68724 135.97 6.57031C139.587 2.77929 146.824 2.46137 151.814 2.35281Z" fill="var(--fill-0, #3B3A39)"/>
<path id="Vector_6" d="M157.222 2.31519C159.703 2.34093 162.182 2.34222 164.663 2.31906L164.661 36.5964C162.184 36.5765 159.707 36.5753 157.23 36.5924C157.171 32.821 157.227 28.8857 157.226 25.1039L157.222 2.31519Z" fill="var(--fill-0, #3B3A39)"/>
<path id="Vector_7" d="M196.289 2.42603C196.312 3.12798 196.366 4.54446 196.201 5.1657C196.021 4.71631 196.049 4.32518 196.044 3.84469L196.05 3.62999C195.826 3.74012 195.3 5.15323 195.18 5.44764C194.816 4.75638 194.519 4.00123 194.224 3.27583C194.238 3.74623 194.306 4.51065 194.108 4.90766L194.08 4.87835C193.957 4.2569 193.996 3.47611 194.006 2.83082C194.649 3.02872 194.959 4.3913 195.168 5.00921C195.484 4.06591 195.754 3.27045 196.289 2.42603Z" fill="var(--fill-0, #3B3A39)" fill-opacity="0.937255"/>
<path id="Vector_8" d="M192.039 2.97688C192.384 2.92298 193.442 2.86072 193.734 3.0344L193.67 3.14877L193.082 3.19846C192.93 3.45332 192.995 4.28486 193.002 4.62616C193.009 4.74181 192.974 4.98344 192.961 5.10852L192.836 5.1304C192.689 4.80969 192.804 3.97642 192.775 3.5763C192.719 2.82775 192.534 3.44753 192.039 2.97688Z" fill="var(--fill-0, #3B3A39)" fill-opacity="0.964706"/>
</g>
</svg>
