<svg preserveAspectRatio="none" width="100%" height="100%" overflow="visible" style="display: block;" viewBox="0 0 183.673 54" fill="none" xmlns="http://www.w3.org/2000/svg">
<g id="image 21 [Vectorized]" clip-path="url(#clip0_0_13)">
<path id="Vector" d="M0.444324 0.279089L8.89831 0.274795C11.7031 0.27131 13.9165 0.164178 16.6872 0.695554C22.4726 1.80512 24.2823 8.03284 18.9212 11.2918C20.7637 12.0835 22.1811 13.0432 22.8627 15.0491C23.3718 16.5975 23.2487 18.2843 22.5203 19.7424C20.1602 24.0894 12.7285 23.4122 8.55055 23.4082L0.449471 23.414L0.444324 0.279089ZM8.08904 17.9295C9.70713 17.9479 13.4433 18.2093 14.683 17.477C15.2213 16.9304 15.4951 16.181 15.1752 15.4654C14.3832 13.6936 9.77278 14.2604 8.0906 14.2791C8.12025 15.1772 8.15902 17.0442 8.08904 17.9295ZM8.1035 9.14264C9.61574 9.14901 12.4094 9.36609 13.623 8.68387C14.0011 8.33199 14.1968 8.10034 14.2146 7.55415C14.2768 5.64112 12.1531 5.74857 10.8227 5.73297C9.93098 5.72252 8.95995 5.79697 8.08996 5.75357C8.1073 6.78275 8.15322 8.13446 8.1035 9.14264Z" fill="var(--fill-0, #3B3A39)"/>
<path id="Vector_2" d="M111.037 0.275921L118.539 0.272324C121.233 0.271549 123.414 0.110221 126.101 0.785982C131.101 2.04326 133.636 6.48276 132.351 11.441C131.763 13.7119 130.319 15.1305 128.304 16.2653C129.867 18.2804 131.711 21.607 133.234 23.4029L131.679 23.4074L124.854 23.4065C123.547 21.5563 122.198 19.4618 120.928 17.5679L118.844 17.5843L118.857 23.4121L111.039 23.4115L111.037 0.275921ZM118.853 11.6801C120.608 11.6937 122.707 11.9741 124.093 10.9165C124.968 9.79009 125.155 7.90259 123.947 6.94384C122.686 5.94314 120.368 6.43873 118.839 6.31254L118.853 11.6801Z" fill="var(--fill-0, #3B3A39)"/>
<path id="Vector_3" d="M34.927 30.6252C34.9867 30.6155 35.0466 30.6077 35.1067 30.6018C37.7312 30.3489 41.1597 31.5388 43.219 33.2234C45.5095 35.1154 46.9489 37.8445 47.2173 40.8035C47.9073 47.8298 43.2599 52.8788 36.374 53.5368C20.7212 54.3306 19.1771 31.7599 34.927 30.6252ZM37.0983 52.5497C42.8714 51.7013 46.8687 46.3392 46.0341 40.563C45.1994 34.7868 39.8477 30.7762 34.0707 31.5974C28.2743 32.4213 24.2481 37.7958 25.0856 43.5912C25.923 49.3866 31.3058 53.4009 37.0983 52.5497Z" fill="var(--fill-0, #3B3A39)"/>
<path id="Vector_4" d="M91.2015 30.6256C91.2616 30.6163 91.3226 30.6086 91.3835 30.6029C96.666 30.1068 102.246 34.0959 103.264 39.3555C104.723 46.8936 100.239 52.8546 92.6221 53.5369C89.5102 53.6952 86.435 52.8617 84.0402 50.8171C81.7846 48.8796 80.3937 46.1232 80.1752 43.1576C79.6272 36.1119 84.2703 31.152 91.2015 30.6256ZM93.3333 52.5569C99.1206 51.7305 103.143 46.3669 102.314 40.5783C101.486 34.7897 96.1225 30.7691 90.3351 31.599C84.5505 32.4287 80.5328 37.7907 81.3605 43.5768C82.1881 49.363 87.5479 53.383 93.3333 52.5569Z" fill="var(--fill-0, #3B3A39)"/>
<path id="Vector_5" d="M165.38 0.27937L173.101 0.278727L183.205 23.4026L175.128 23.4078C174.736 22.3618 174.078 20.4693 173.539 19.4256C173.49 19.3303 173.373 19.3501 173.27 19.3496L167.964 19.3558C167.096 19.3572 165.611 19.4031 164.794 19.2856C164.478 20.375 163.691 22.3224 163.247 23.4056C160.612 23.4355 157.92 23.4054 155.28 23.403C155.803 22.308 156.333 21.1061 156.796 19.9827C159.502 13.403 162.76 6.8765 165.38 0.27937ZM166.944 13.7059L169.181 13.7146C169.913 13.7161 170.706 13.7017 171.433 13.7212C171.179 13.1042 169.329 8.16535 169.155 8.03376C168.504 9.75027 167.683 12.0624 166.944 13.7059Z" fill="var(--fill-0, #3B3A39)"/>
<path id="Vector_6" d="M92.0231 0.27962C94.5836 0.261611 97.1441 0.26567 99.7037 0.291796C102.567 6.57025 105.198 12.9907 108.023 19.2907C108.632 20.6489 109.192 22.0669 109.849 23.4C107.169 23.4365 104.423 23.4079 101.738 23.4102C101.437 22.7559 100.439 19.7312 100.125 19.3436L99.8965 19.3514L94.6267 19.3558C93.7478 19.3575 92.25 19.4054 91.424 19.2889C91.0285 20.5399 90.3568 22.1568 89.8752 23.41L81.9014 23.4036C83.1037 20.8307 84.2827 17.9913 85.4254 15.3763L92.0231 0.27962ZM93.5773 13.713L95.8491 13.7149L98.0598 13.7134C97.7665 13.0559 95.9845 8.22912 95.7612 8.04798C95.0473 9.94181 94.3199 11.8302 93.5773 13.713Z" fill="var(--fill-0, #3B3A39)"/>
<path id="Vector_7" d="M33.4785 0.278158L41.1943 0.281207C41.5732 1.17289 41.9623 2.07088 42.3597 2.95426C45.4085 9.73108 48.2349 16.6441 51.3191 23.402L43.2101 23.4077C43.0455 22.8806 41.854 19.6408 41.5697 19.3489L41.3596 19.3507L36.029 19.3543C35.1403 19.3542 33.7522 19.3923 32.9187 19.2974L31.3531 23.409L23.3889 23.4029C25.1373 19.5139 26.8337 15.5306 28.5439 11.6204C30.2092 7.84854 31.8541 4.06774 33.4785 0.278158ZM35.0365 13.7114L37.1969 13.7146L39.5285 13.7214C39.0168 12.4617 38.5255 11.1937 38.0546 9.91819C37.8899 9.48359 37.4808 8.33959 37.2683 7.96645C36.6741 9.60729 35.7384 12.1392 35.0365 13.7114Z" fill="var(--fill-0, #3B3A39)"/>
<path id="Vector_8" d="M55.7552 30.7555L62.5145 30.7497C66.7183 30.7465 72.1612 30.6453 72.4878 36.3587C72.6481 39.1643 71.078 40.8986 68.5461 41.8526C68.7791 41.8955 69.0116 41.9415 69.2432 41.9908C73.1588 42.8312 74.3887 45.7509 73.5779 49.4024C72.0312 53.9742 65.9156 53.4135 62.0801 53.4093L55.7871 53.4117C55.7113 50.7392 55.7598 47.8437 55.7593 45.1554L55.7552 30.7555ZM56.8743 52.4474C60.8991 52.332 67.92 53.2076 71.1813 51.0394C71.5289 50.709 71.8038 50.4358 72.0636 50.0259C72.9675 48.6025 72.946 46.1608 72.0126 44.7695C70.5457 42.583 67.4225 42.4785 65.0548 42.4507C62.3265 42.4188 59.5875 42.4808 56.8584 42.4485C56.8858 45.7813 56.8911 49.1144 56.8743 52.4474ZM56.8683 41.5131L62.3802 41.5221C64.6847 41.5243 68.0634 41.7097 69.9249 40.0957C70.5516 39.5081 71.0621 38.8143 71.2412 37.9776C72.1844 33.5694 68.997 31.7709 65.1531 31.7219C62.3301 31.6858 59.5713 31.7889 56.861 31.7104C56.9049 34.6051 56.9805 38.6541 56.8683 41.5131Z" fill="var(--fill-0, #3B3A39)"/>
<path id="Vector_9" d="M135.666 0.240827C136.082 0.282751 136.633 0.279578 137.053 0.275671C142.842 0.221898 148.659 0.362206 154.444 0.252167L154.459 6.17774L143.311 6.18366L143.317 8.85788L153.151 8.85975C153.011 10.1864 153.096 13.0662 153.1 14.5001C150.087 14.415 146.834 14.4725 143.806 14.4777C143.687 14.4784 143.564 14.5011 143.446 14.5183C143.179 14.8995 143.309 16.936 143.316 17.512C147.06 17.3905 151.07 17.5788 154.877 17.4853L154.879 23.4137L135.673 23.4271C135.597 20.7237 135.66 17.7215 135.66 14.9995L135.666 0.240827Z" fill="var(--fill-0, #3B3A39)"/>
<path id="Vector_10" d="M48.1546 0.278808L56.3754 0.28431C56.894 1.02005 57.6093 2.31041 58.0856 3.1183L61.1171 8.26485C62.6166 5.60694 64.2891 2.92948 65.8371 0.278727L73.4133 0.284744L67.8104 9.73845C67.3535 10.5254 64.8431 14.545 64.7932 15.0046C64.5694 17.0689 64.6788 21.2429 64.6854 23.4116L56.8746 23.4096L56.8634 14.8841L48.1546 0.278808Z" fill="var(--fill-0, #3B3A39)"/>
<path id="Vector_11" d="M0.59709 30.7087C1.28002 30.7926 2.2193 30.7236 2.9307 30.7526C6.49921 30.8999 9.80762 30.2453 13.2092 31.6827C17.1624 33.3532 18.1078 37.9809 16.5993 41.6729C15.7679 43.7078 13.9095 44.712 11.9096 45.4476C13.7354 47.7692 15.8962 50.9869 17.634 53.4264L16.3372 53.4021L15.8005 52.6746C14.2906 50.6121 12.1869 47.7902 10.8196 45.6863C8.76093 45.9837 3.94593 45.882 1.64574 45.8754C1.71988 48.3103 1.66865 50.9729 1.66923 53.4214C1.33686 53.4043 0.896652 53.4164 0.555053 53.4154C0.456847 48.2232 0.595253 42.8946 0.545462 37.6877C0.535051 36.5991 0.463845 31.4454 0.59709 30.7087ZM1.68526 44.8544L6.17325 44.862C9.09042 44.8634 11.913 45.0209 14.3168 43.0321C15.727 41.6237 16.1736 40.2342 16.1788 38.3148C16.1948 32.4532 11.2049 31.5481 6.52634 31.7561C5.12717 31.8183 3.06011 31.7862 1.65093 31.7585C1.7016 36.0979 1.58546 40.5348 1.68526 44.8544Z" fill="var(--fill-0, #3B3A39)"/>
<path id="Vector_12" d="M174.224 30.6261C175.548 30.2788 178.646 30.995 179.905 31.5529C180.577 31.8512 181.304 32.2613 181.926 32.6567L181.425 33.548C179.747 32.4681 178.358 31.8987 176.391 31.642C173.304 31.239 168.756 32.3079 168.558 36.1135C168.216 42.6922 178.805 40.562 181.802 44.6538C182.662 45.8267 182.908 46.9909 182.745 48.4237C182.199 52.7995 177.263 53.8987 173.65 53.4749C171.069 53.3455 168.628 52.2644 166.796 50.4403L167.385 49.6484C167.644 49.8888 167.909 50.1227 168.178 50.3501C171.27 52.9137 177.756 53.687 180.778 50.4772C181.357 49.8624 181.863 48.2012 181.715 47.3631C180.702 41.8494 172.726 43.4508 169.202 40.3836C167.083 38.5401 166.881 35.203 168.639 33.0182C169.996 31.3321 172.155 30.8176 174.224 30.6261Z" fill="var(--fill-0, #3B3A39)"/>
<path id="Vector_13" d="M152.529 30.6265C152.617 30.6067 152.681 30.596 152.772 30.5947C156.235 30.5437 158.544 31.42 161.031 33.7451L160.327 34.4519C157.827 32.2566 155.846 31.4923 152.455 31.6544C143.13 32.1 139.232 43.794 146.056 49.9505C148.399 52.0644 151.239 52.6761 154.367 52.4768C156.543 52.4443 158.71 51.1991 160.31 49.8108L161.04 50.538C156.824 54.5605 149.692 54.5368 145.333 50.7802C143.106 48.8394 141.74 46.0932 141.537 43.1455C141.03 36.2232 145.676 31.1239 152.529 30.6265Z" fill="var(--fill-0, #3B3A39)"/>
<path id="Vector_14" d="M125.024 30.7269L125.125 30.7318C125.28 30.9062 125.258 31.4963 125.267 31.7631C122.499 31.7936 119.667 31.7611 116.893 31.7595C116.977 38.9563 116.826 46.2081 116.909 53.4067C116.6 53.3957 116.186 53.4225 115.868 53.435C115.813 50.9807 115.857 48.3497 115.856 45.882L115.849 31.7525C114.946 31.7845 107.932 31.8522 107.638 31.6372C107.549 31.2738 107.579 31.0752 107.82 30.8135C108.318 30.6067 123.046 30.7919 125.024 30.7269Z" fill="var(--fill-0, #3B3A39)"/>
<path id="Vector_15" d="M132.016 30.7572L133.104 30.7547L133.11 53.4337C132.802 53.4083 132.345 53.4139 132.025 53.4082C131.875 48.101 132.06 42.7204 131.989 37.4053C131.959 35.2102 131.968 32.9525 132.016 30.7572Z" fill="var(--fill-0, #3B3A39)"/>
</g>
<defs>
<clipPath id="clip0_0_13">
<rect width="183.673" height="54" fill="white"/>
</clipPath>
</defs>
</svg>
