<svg preserveAspectRatio="none" width="100%" height="100%" overflow="visible" style="display: block;" viewBox="0 0 150 54" fill="none" xmlns="http://www.w3.org/2000/svg">
<g id="image 18 [Vectorized]">
<path id="Vector" d="M46.7748 0.0993155C48.7977 0.0910285 50.9799 0.0507193 53.0091 0.123399C53.0337 0.124654 53.3207 0.172986 53.3227 0.177547C55.4105 4.97448 57.2954 9.86767 59.3138 14.6961C59.5991 15.3785 59.8927 16.2994 60.3261 16.8655C60.6941 16.6801 61.6807 13.9815 61.9104 13.4382C63.1748 10.3989 64.4209 7.35214 65.6486 4.29794C65.9816 3.48296 67.0073 0.731421 67.5416 0.176322C68.125 0.000712405 72.9797 0.0875304 73.8882 0.0913786V25.1016H68.7675V14.4211C68.7673 13.7644 68.8237 9.04405 68.6844 8.79531C67.6302 10.1359 66.9838 13.6882 65.9318 15.236C65.8363 15.3763 65.6943 16.1968 65.5808 16.4347C65.3371 16.9458 65.0826 17.4601 64.8906 17.9942C64.2326 19.4227 62.6972 24.0069 61.9764 24.9911C61.4629 25.0986 59.193 25.1805 58.7638 25.0025C58.3133 24.8158 53.4566 11.9035 52.7453 10.2175C52.6134 9.90488 52.2041 8.87777 51.9448 8.77189C51.8673 9.16002 51.9016 12.7384 51.9017 13.3642L51.903 25.1016L46.7748 25.0991V0.0993155Z" fill="var(--fill-0, #3B3A39)"/>
<path id="Vector_2" d="M8.96002 0.117774C10.5085 -0.103782 12.9091 0.212323 14.5423 0.0943511C15.3536 0.0357541 15.6721 0.0925851 15.9506 0.866326C18.4152 7.69892 20.7648 14.5725 22.9979 21.4843C23.1882 22.0599 24.3947 24.7296 24.0785 25.0785C23.136 25.2264 21.8476 25.0784 20.8464 25.0892C18.7055 25.112 18.745 25.5692 18.0929 23.5813C17.6843 22.3363 17.2707 20.5767 16.8096 19.5275C16.525 19.3708 16.0298 19.4084 15.6892 19.409H7.62846C7.58826 19.681 7.53084 19.9501 7.45657 20.2148C7.29126 20.7864 6.02643 24.9201 5.77839 25.0571C5.1301 25.0979 0.560836 25.1863 0.271201 25.0031C0.9473 22.4622 2.47228 18.5963 3.36579 15.9589C4.80102 11.6585 6.28182 7.37363 7.80792 3.10475C8.03153 2.48604 8.564 0.484379 8.96002 0.117774ZM12.4408 15.1894C13.3395 15.1927 14.3137 15.2698 15.2003 15.1258L15.2776 15.0387C15.0562 14.0483 12.5339 6.01971 12.2 5.79992C11.7291 6.8533 11.1103 9.00755 10.7442 10.1729C10.3576 11.4037 9.40846 13.8939 9.17633 15.0967C9.47886 15.3131 11.9058 15.193 12.4408 15.1894Z" fill="var(--fill-0, #3B3A39)"/>
<path id="Vector_3" d="M27.2225 0.143947C27.6782 0.0326142 31.8045 0.0858268 32.5718 0.0909495L32.5693 14.0439C32.569 15.5848 32.4659 19.4561 32.6281 20.7533H43.2826V25.1011H27.2225V0.143947Z" fill="var(--fill-0, #3B3A39)"/>
<path id="Vector_4" d="M41.7309 33.2993C41.727 33.8407 41.6472 35.8386 41.9071 36.1812C42.1916 35.9702 42.3393 35.3407 42.6326 35.0183C44.9518 32.4727 49.4888 32.3708 51.9408 34.7596C54.2472 37.0069 53.7068 40.7713 53.7058 43.758L53.6999 52.0809L51.554 52.0763L51.5569 42.6931C51.5569 41.2973 51.6022 39.8683 51.4742 38.4789C51.4536 38.2547 51.0776 37.5684 50.9516 37.306C49.3254 33.9074 43.5638 34.6503 42.2251 37.8075C41.5518 39.3965 41.788 43.1803 41.789 45.0938L41.7959 52.0809C41.1423 52.084 40.2268 52.0605 39.5948 52.1007C39.9088 51.2899 39.7129 35.6435 39.7179 33.3014C40.3193 33.295 41.1491 33.2641 41.7309 33.2993Z" fill="var(--fill-0, #3B3A39)"/>
<path id="Vector_5" d="M0.00347225 33.3301C0.6128 33.2116 1.71667 33.2128 2.31872 33.3486C2.67772 34.0912 2.9188 34.9141 3.19865 35.6908C3.82856 37.439 4.41859 39.1979 5.0288 40.9525C5.91395 43.4975 7.04766 46.1062 7.694 48.7124C7.82718 48.8534 7.96617 49.0364 8.16325 49.0794C8.60139 47.2764 9.42315 45.4283 10.0395 43.6636C11.2362 40.2372 12.3755 36.7801 13.6867 33.3956C13.854 33.2619 14.0381 33.2858 14.2497 33.2775C14.6277 33.2627 15.7489 33.1966 15.996 33.4254C15.7814 33.994 15.4034 34.7358 15.2892 35.3135C14.9664 36.5815 14.3098 37.7967 13.8688 39.0234L10.4548 48.5766C10.0668 49.6521 9.38299 50.9715 9.22677 52.0817L8.26927 52.0847C7.97907 52.0849 7.11922 52.1527 6.90482 52.0169C6.61807 51.8354 2.0494 38.9891 1.6272 37.8009C1.4189 37.2147 0.167469 33.4939 0.00347225 33.3301Z" fill="var(--fill-0, #3B3A39)"/>
<path id="Vector_6" d="M94.705 34.8506C94.7532 34.8336 94.9176 34.7839 94.9422 34.7556C96.281 33.2161 98.1276 32.9168 100.046 33.0065C100.137 33.7092 100.111 34.4662 100.106 35.1785C98.1139 35.1051 96.8391 35.1343 95.206 36.5623C94.6656 37.0358 93.9322 38.2058 93.9086 38.9311C93.9076 38.967 93.9076 39.0029 93.9086 39.0387C93.5641 39.3727 93.566 40.358 93.6222 40.8119C93.8318 42.491 93.2934 51.1405 93.7432 52.1006C93.129 52.0616 92.2421 52.084 91.6071 52.0808V33.2992C92.1889 33.264 93.0187 33.2949 93.6202 33.3013C93.6202 33.8209 93.5395 35.9091 93.7334 36.2131L93.8988 36.2063C94.0523 35.8219 94.6567 35.1036 94.705 34.8506Z" fill="var(--fill-0, #3B3A39)"/>
<path id="Vector_7" d="M39.5636 52.1009L39.4376 52.0183C39.3313 51.5707 39.3578 33.6936 39.4396 33.3428L39.6866 33.3016C39.6817 35.6438 39.8776 51.2902 39.5636 52.1009Z" fill="var(--fill-0, #3B3A39)"/>
<path id="Vector_8" d="M93.7557 52.1009C93.3058 51.1408 93.8443 42.4913 93.6346 40.8122C93.5785 40.3583 93.5765 39.373 93.9211 39.039C93.9319 40.4129 94.0077 51.8698 93.8423 52.0617L93.7557 52.1009Z" fill="var(--fill-0, #3B3A39)"/>
<path id="Vector_9" d="M93.6115 33.3016L93.8389 33.3601C94.0604 33.9853 93.7837 35.4558 94.0082 35.689C94.1647 35.4775 94.2316 35.0219 94.6963 34.8509C94.648 35.104 94.0436 35.8223 93.8901 36.2066L93.7247 36.2134C93.5308 35.9095 93.6115 33.8212 93.6115 33.3016Z" fill="var(--fill-0, #3B3A39)"/>
<path id="Vector_10" d="M108.818 52.1794C107.595 52.1126 105.964 51.0925 105.091 50.2254C103.093 48.2402 102.343 45.5878 102.333 42.8265C102.323 40.1359 103.111 37.293 105.053 35.3396C105.945 34.4124 107.183 33.845 108.315 33.2918C108.11 33.3919 110.628 32.9815 110.461 32.9738C111.893 33.0395 113.546 33.4328 114.701 34.3208C115.003 34.5529 115.517 34.6789 115.782 35.0015C117.042 36.1779 118.345 38.636 118.349 40.3633C118.34 41.3161 118.337 42.2688 118.34 43.2216C116.593 43.2202 105.554 43.0312 104.652 43.2913C104.367 43.6082 104.363 44.001 104.636 44.3397C104.611 45.3264 105.149 46.7868 105.72 47.7028C107.49 50.544 110.786 51.0307 113.736 49.9097C114.182 49.7398 115.758 48.205 115.815 47.6574C116.223 47.3116 118.054 47.6517 117.833 48.4402C117.375 50.0766 114.699 52.0968 113.087 52.1794H108.818ZM104.626 41.3612H112.089H116.26C116.24 39.581 115.683 37.8286 114.381 36.5556C113.372 35.5698 112.137 35.0847 110.728 35.1028C110.155 35.1102 109.573 35.1214 109.003 35.188C107.183 36.0158 105.786 37.1554 105.067 39.0782C104.785 39.8349 104.608 40.5505 104.626 41.3612Z" fill="var(--fill-0, #3B3A39)"/>
<path id="Vector_11" d="M25.0503 52.1797C23.6771 52.0394 22.0479 51.0151 21.1423 50.0195C16.9075 45.3645 17.9706 35.2715 24.6378 33.3213C24.9174 33.2464 25.2589 33.3123 25.5316 33.2343C29.2191 32.1812 33.4027 35.1574 34.3378 38.7611C34.5052 39.4093 34.5928 39.5952 34.5751 40.2848C34.5071 41.1441 34.5524 42.3136 34.5642 43.1974C33.1261 43.1961 21.1777 43.1028 20.8706 43.3085C20.8509 47.1909 22.9417 50.4347 27.1627 50.4677C28.6285 50.4792 30.0696 50.0212 31.1347 48.9978C31.5619 48.5968 32.0826 47.5322 32.4173 47.4971C32.9243 47.4439 33.7364 48.031 34.2305 48.0597C34.4835 48.662 33.3259 49.6165 33.0424 50.0343C32.3258 51.0928 30.5677 52.045 29.3096 52.1797H25.0503ZM20.8804 41.3615H28.1166H32.4646C32.4104 39.4881 32.0275 37.8306 30.5992 36.485C29.3638 35.3216 28.09 35.0661 26.453 35.1172C26.0563 35.1295 25.6606 35.1425 25.2658 35.1906C24.7746 35.4335 24.1614 35.6452 23.7115 35.9385C22.6011 36.6634 21.6266 38.1702 21.2043 39.4114C20.9917 40.0386 20.8421 40.6968 20.8804 41.3615Z" fill="var(--fill-0, #3B3A39)"/>
<path id="Vector_12" d="M71.8509 33.2865L74.0175 33.2904C74.1179 36.1833 73.9535 39.321 74.0195 42.251C74.0549 43.8565 73.8875 45.825 74.2626 47.4112C74.4801 47.8725 75.1928 48.7664 75.5305 49.0992C77.1891 50.7374 80.6699 50.4605 82.173 48.7272C82.491 48.3602 83.1663 47.7206 83.3051 47.2841C83.9252 45.3437 83.7421 43.1353 83.7411 41.1052L83.7421 33.2865L85.8526 33.2982C85.8536 35.3619 85.7463 51.587 85.9727 52.1008C85.2275 52.0858 84.4834 52.0792 83.7382 52.081C83.7411 51.5941 83.8258 49.341 83.5905 49.0756C83.375 49.1773 83.4252 49.1366 83.3248 49.3608C82.6544 50.8566 80.7979 51.9604 79.2071 52.1795H76.8377C75.2263 51.9811 74.0293 51.2912 73.0528 49.9555C71.462 47.7816 71.843 44.9506 71.844 42.3686L71.8509 33.2865Z" fill="var(--fill-0, #3B3A39)"/>
<path id="Vector_13" d="M127.024 52.1796C126.87 52.1597 126.715 52.1339 126.562 52.1023C125.087 51.7932 123.75 50.6656 123.012 49.375C122.718 48.8608 122.74 48.3963 122.369 47.9384C122.317 47.8732 122.372 47.7341 122.391 47.6494C122.588 47.4993 124.2 47.1907 124.502 47.1834C125.376 52.804 136.584 50.6991 133.367 45.3808C132.265 43.5613 126.242 43.7391 124.562 41.8137C123.365 40.4423 123.096 40.0773 122.935 38.1516C123.297 34.4003 126.487 33.1261 129.811 33.0179C132.009 32.9463 135.853 35.0908 135.783 37.4112L135.661 37.5243C135.189 37.5684 134.599 37.9489 134.183 37.9126C133.619 37.8633 132.929 35.6562 131.091 35.1408C129.754 34.766 128.033 34.909 126.812 35.6024C126.122 35.9941 125.565 36.5904 125.354 37.3672C125.157 38.0901 125.221 39.1478 125.612 39.8028C126.411 41.1412 130.108 41.6958 131.594 42.0879C132.801 42.4068 134.556 43.1301 135.286 44.1873C135.607 44.6529 135.764 45.205 136.048 45.6921V48.3968L136.034 48.4138C135.732 48.7934 135.644 49.3246 135.376 49.723C134.579 50.9014 132.773 52.0144 131.39 52.1796H127.024Z" fill="var(--fill-0, #3B3A39)"/>
<path id="Vector_14" d="M60.6888 28.7997L62.9815 28.7997V33.2862H66.8343C66.8441 33.9127 66.85 34.5393 66.852 35.1659H63.0179C62.9401 36.3571 62.9844 37.6104 62.9775 38.8079C62.9677 40.3753 62.9726 41.9506 62.9775 43.5185C62.9972 45.2242 62.9342 46.9366 63.0425 48.6395C63.0514 48.7744 63.2925 48.9991 63.3752 49.1118C64.1981 50.2412 65.6442 50.3136 66.9642 50.1212C67.1316 50.369 67.4358 51.6277 67.3698 52.0072C67.1936 52.0696 67.0312 52.1256 66.852 52.1791H64.522C62.823 51.9913 60.9596 50.4334 60.8168 48.6816C60.4516 44.2222 60.8119 39.641 60.6682 35.1659H57.9464L57.9602 33.2862H60.6761C60.677 32.0805 60.6062 29.9272 60.6888 28.7997Z" fill="var(--fill-0, #3B3A39)"/>
<path id="Vector_15" d="M85.8715 33.298L86.1294 33.3423C86.216 33.8761 86.1816 35.63 86.1806 36.2409L86.1648 41.8458L86.1747 48.8241C86.1757 49.4047 86.217 51.5512 86.1176 52.018L85.9916 52.1005C85.7652 51.5867 85.8725 35.3616 85.8715 33.298Z" fill="var(--fill-0, #3B3A39)"/>
<path id="Vector_16" d="M118.364 40.3636C118.538 40.4984 118.648 40.5467 118.648 40.823C118.648 41.4847 118.713 42.7119 118.575 43.3161C117.797 43.7751 108.246 43.3051 106.666 43.4486C106.238 43.4876 105.163 43.3546 104.741 43.5385C104.674 43.8688 104.66 44.0035 104.651 44.34C104.378 44.0013 104.382 43.6085 104.667 43.2915C105.57 43.0315 116.608 43.2205 118.355 43.2218C118.352 42.2691 118.355 41.3164 118.364 40.3636Z" fill="var(--fill-0, #3B3A39)"/>
<path id="Vector_17" d="M34.5989 40.2845L34.7967 40.3474C34.9395 40.9805 34.8893 42.6536 34.8834 43.3568C33.7188 43.5011 21.2153 43.4533 20.8944 43.3082C21.2015 43.1026 33.1499 43.1958 34.588 43.1972C34.5762 42.3133 34.5309 41.1439 34.5989 40.2845Z" fill="var(--fill-0, #3B3A39)"/>
</g>
</svg>
