<svg preserveAspectRatio="none" width="100%" height="100%" overflow="visible" style="display: block;" viewBox="0 0 150 36.8098" fill="none" xmlns="http://www.w3.org/2000/svg">
<g id="Group 3">
<path id="Vector" d="M13.8614 0.0708382C19.0926 -0.0952347 22.859 -0.225774 27.4615 2.83626C30.8583 5.03421 32.9623 9.09509 33.5778 13.0018C34.7297 20.3147 34.1478 29.3352 27.5055 33.8948C25.0446 35.5839 23.0687 36.1854 20.1778 36.7189C14.9075 36.919 11.4002 37.0568 6.7247 34.0632C3.40299 31.9365 1.24816 28.1831 0.555732 24.353C-0.450247 18.7884 -0.3372 11.2436 2.98861 6.39335C5.73828 2.38321 9.32966 0.981755 13.8614 0.0708382ZM18.1033 35.5687C29.1816 35.7819 32.5468 28.9308 32.6867 18.7243C32.8127 9.53489 29.8947 1.28153 19.4075 1.15641C18.1631 1.14919 16.9818 1.00269 15.7005 1.16334C12.6893 1.30065 10.136 1.44459 7.46668 3.06587C3.14622 5.65137 1.77276 10.5223 1.49671 15.2996C1.16422 21.0535 1.2299 28.2499 5.79739 32.4496C9.3589 35.7244 13.59 35.599 18.1033 35.5687Z" fill="var(--fill-0, #191715)" fill-opacity="0.945098"/>
<path id="Vector_2" d="M10.8671 4.71582C12.973 3.10849 17.3101 3.89047 20.1737 3.75274C17.9483 6.16709 18.7849 7.32808 18.606 10.5547C20.1321 10.4986 21.6216 10.5192 23.1288 10.4751C21.3677 12.4442 20.0291 14.628 18.3794 16.5051C20.1018 18.5363 22.4307 21.2046 23.8268 23.446C24.5931 21.1188 28.5669 13.1564 28.2317 11.5903C27.9329 11.0499 27.407 10.7032 26.9191 10.3239C28.4867 10.4905 29.7083 10.5666 31.2883 10.383C29.6012 12.5439 24.9467 23.633 23.8025 26.7033C23.3296 26.0592 19.2262 20.5926 18.9534 20.4372C17.9773 21.3192 19.7931 30.8182 17.3346 32.3355C15.6745 33.3601 15.4024 33.1188 13.6009 33.0674L12.4432 32.4022C12.1914 31.8526 11.9137 31.2809 11.7232 30.7095C12.2042 29.3115 12.5151 28.3512 14.2966 29.019C14.4926 29.0924 14.6184 29.2059 14.766 29.3563C15.1829 30.5971 14.0029 31.0552 14.0891 31.994C15.7081 32.9388 16.5315 31.3651 16.5707 29.8939C16.6686 26.2064 16.4961 22.5096 16.5872 18.8253C15.4851 20.0774 11.5415 25.8744 10.7994 26.2262C10.2586 25.8497 4.30006 12.5062 2.76074 10.4116C3.43466 10.4473 6.44895 10.4664 6.74231 10.5278C6.11485 12.2284 5.97752 11.5187 6.88727 13.6609C8.31602 17.0254 10.4044 20.2887 11.4182 23.7937C12.6961 21.6769 14.7222 19.1316 16.3046 17.2173C15.4652 15.8083 11.8935 11.6066 10.6416 10.3517C12.6889 10.6191 14.616 10.4102 16.6111 10.525C16.5208 7.76847 16.6402 7.34839 18.3333 5.15484C15.5659 5.81756 14.1841 5.20019 11.2266 5.60027L10.8671 4.71582ZM16.6069 14.0639C16.583 13.0727 16.5629 12.3834 16.6569 11.3927L14.3969 11.4148C14.5011 12.1282 16.0272 13.5366 16.6069 14.0639ZM19.8728 12.6602C20.1828 12.1776 20.6706 11.8111 21.1105 11.4403L18.6577 11.3263C18.6437 11.9983 18.5614 12.996 18.7769 13.5972L18.9841 13.6925C19.3978 13.5071 19.6208 13.0544 19.8728 12.6602Z" fill="var(--fill-0, #191715)" fill-opacity="0.980392"/>
<path id="Vector_3" d="M10.653 5.52147L11.0429 6.32534L9.20245 7.36196C9.71465 6.60139 10.0403 6.215 10.653 5.52147Z" fill="var(--fill-0, #191715)" fill-opacity="0.858824"/>
<path id="Vector_4" d="M46.5831 3.69477C47.8158 3.78905 54.6403 3.43976 55.0587 4.06744C54.6708 4.43504 54.4932 4.64052 54.157 5.05473C53.856 5.93311 55.4627 9.32193 55.9082 10.383C56.2554 8.7147 56.9752 7.37274 57.3696 5.75624C57.526 5.11456 56.972 4.5141 56.5754 4.00592C57.2263 3.60325 61.9018 3.74799 63.0464 3.74737C62.7566 3.99961 61.913 4.7305 61.7631 5.01596C60.2345 7.9266 58.8313 11.7133 57.5839 14.7668C58.8065 17.4375 60.1763 21.1959 61.4122 23.6207C61.8912 20.5295 64.481 13.6439 65.6064 10.399C66.6439 7.07358 68.6103 5.5629 65.0782 3.77844C68.232 3.70846 71.387 3.7243 74.5399 3.82612C73.8479 4.17126 72.9822 4.52194 72.2625 4.83632C71.513 6.16721 70.1311 10.0551 69.5432 11.5817L64.3608 25.0528C63.3307 27.7278 61.9893 31.4713 60.6755 33.9217C59.2076 31.7843 56.0051 23.6839 55.1382 21.0006C53.2143 24.8564 51.534 30.3553 49.4301 34.0491C48.1562 31.65 46.8265 28.2838 45.7333 25.7228L39.872 12.0577C38.9614 9.94808 38.0642 7.83508 37.108 5.7467C36.6339 4.71158 35.3692 4.58669 34.9693 3.78259C37.3319 3.58864 42.0264 3.74599 44.5616 3.77859C43.8822 4.17588 43.4572 4.46349 42.8232 4.93153C43.0161 7.1305 48.9857 20.7193 50.3162 23.5619C50.8872 21.4362 52.229 18.7869 53.0329 16.5547C51.5865 12.9893 49.4843 8.79991 48.3099 5.18531C47.7277 4.69636 47.152 4.19941 46.5831 3.69477Z" fill="var(--fill-0, #191715)"/>
<path id="Vector_5" d="M108.136 31.4897C108.54 23.2053 108.019 14.064 108.028 5.73509C108.028 4.87606 106.924 4.72371 106.49 4.01703L106.589 3.83081C106.887 3.77003 107.907 3.70027 108.184 3.72919C109.964 3.91557 122.438 3.4245 123.224 3.88402C123.572 4.44747 123.462 4.36844 123.492 5.12244C123.43 6.3898 123.696 7.78583 122.955 8.5171C122.632 8.49823 122.536 8.42245 122.238 8.27582C120.313 7.35601 115.669 7.92055 113.313 7.8279C113.337 10.2771 113.379 12.9581 113.307 15.3974C115.271 15.4552 118.388 15.6077 120.333 15.4628L121.866 13.5016C121.748 16.2502 121.792 19.1583 121.794 21.9216C121.079 20.7596 120.574 19.8489 119.09 19.6034C117.294 19.3061 115.188 19.6922 113.304 19.5759C113.338 22.0993 113.444 26.2763 113.284 28.7418C115.248 28.7831 121.178 29.0911 122.607 28.4589L123.285 28.3168C123.789 28.8043 123.574 30.4177 123.893 31.483L124.221 31.7419C124.212 32.4448 124.326 32.4977 123.998 32.9767C123.342 33.2492 107.777 33.0636 105.828 33.1066C106.654 32.6115 107.464 32.1852 108.136 31.4897Z" fill="var(--fill-0, #191715)"/>
<path id="Vector_6" d="M124.233 3.77679C126.79 3.60679 130.731 3.70687 133.332 3.74601C132.976 4.07734 132.329 4.52856 132.109 4.95115C131.59 5.94995 137.086 14.9654 137.696 16.6802C138.805 14.0835 143.033 7.18231 142.826 5.17219C142.539 4.63312 141.465 4.10055 140.893 3.76643C143.684 3.61871 147.164 3.72667 150 3.75003C149.608 4.01578 148.702 4.62894 148.462 4.97868C146.412 7.98295 144.368 12.0498 142.666 15.2669C141.557 17.5653 139.792 19.4396 139.833 22.1079C139.88 25.1151 139.638 28.2184 139.955 31.2063C140.031 31.9256 141.521 32.7632 142.082 33.1288C139.34 32.9177 135.064 33.0113 132.24 33.0687C132.774 32.7141 133.64 32.3089 134.232 32.0102C134.3 31.8173 134.363 31.6222 134.42 31.4256C134.715 30.4019 134.655 27.9277 134.617 26.8273C134.569 25.4251 134.8 22.0114 134.468 20.8301C133.979 19.0953 132.032 16.0802 131.087 14.3958C129.284 11.1817 127.368 8.04916 125.633 4.79307C124.838 4.45121 124.67 4.43621 124.233 3.77679Z" fill="var(--fill-0, #191715)"/>
<path id="Vector_7" d="M86.5031 3.72693C89.8528 3.75267 93.9624 3.56441 97.2438 3.80493C96.7512 4.04886 95.0805 4.77475 94.9886 5.20927C94.4574 7.71897 94.7349 11.3855 94.6961 13.994C94.6226 18.9383 94.7769 23.9134 94.6915 28.825C97.3229 28.8434 100.327 29.0833 102.793 28.4029C103.59 28.4765 104.331 28.5949 104.908 27.9198C104.595 29.7931 104.783 31.1163 104.352 33.1114L92.5335 33.0948C91.6804 33.0962 87.8395 33.1959 87.3046 33.0475L87.2684 32.8432C87.777 32.4749 88.3908 32.3017 88.9877 32.0959C89.4558 29.1472 89.5758 7.40169 88.8872 4.96053C88.1357 4.59099 87.1992 4.1633 86.5031 3.72693Z" fill="var(--fill-0, #191715)"/>
<path id="Vector_8" d="M75.4108 3.71815C78.3537 3.66594 81.2974 3.66873 84.2402 3.72652C83.5648 4.1431 82.8025 4.57936 82.2098 5.08657C82.0218 5.66753 81.7954 6.40279 81.7805 7.00606C81.6299 13.1261 81.7331 19.2608 81.7115 25.384C81.7046 27.3696 81.5722 29.7906 82.027 31.7032C82.85 32.4101 83.6539 32.6918 84.6626 33.1288C81.267 32.9651 77.0489 33.0013 73.6196 33.078C74.3028 32.7019 75.9384 32.0396 75.9825 31.4247C76.2205 28.1077 76.2158 23.537 76.1339 20.2181C76.0155 15.4095 76.3564 9.8701 76.0587 5.21237C75.981 4.59253 75.9305 4.81934 76.1837 4.30825L75.4108 3.71815Z" fill="var(--fill-0, #191715)"/>
<path id="Vector_9" d="M122.393 28.0159C123.542 26.8249 123.632 26.4122 124.215 24.8466C124.314 27.5173 123.971 28.9607 123.933 31.2883L123.62 31.0303C123.316 29.9683 123.521 28.3602 123.04 27.8742L122.393 28.0159Z" fill="var(--fill-0, #191715)" fill-opacity="0.960784"/>
<path id="Vector_10" d="M102.147 28.4664C103.428 27.8432 103.618 26.8297 104.683 25.7669L104.881 25.8008C104.932 26.6928 104.915 27.0683 104.792 27.9552C104.071 28.6696 103.144 28.5443 102.147 28.4664Z" fill="var(--fill-0, #191715)" fill-opacity="0.945098"/>
<path id="Vector_11" d="M123.197 5.52147C123.315 6.33196 123.414 9.50567 123.119 10.1227L122.981 10.0657C122.826 9.38513 122.758 8.90797 122.393 8.41943C122.584 8.55418 122.646 8.62383 122.853 8.64117C123.328 7.96913 123.157 6.68617 123.197 5.52147Z" fill="var(--fill-0, #191715)" fill-opacity="0.870588"/>
<path id="Vector_12" d="M76.2658 5.52147C75.7073 4.6965 74.7985 4.57803 74.5399 3.86135C74.8822 3.61195 75.259 3.68986 75.6724 3.70194L76.3804 4.42051C76.1484 5.04287 76.1947 4.76668 76.2658 5.52147Z" fill="var(--fill-0, #191715)" fill-opacity="0.901961"/>
</g>
</svg>
