<svg preserveAspectRatio="none" width="100%" height="100%" overflow="visible" style="display: block;" viewBox="0 0 47 16.92" fill="none" xmlns="http://www.w3.org/2000/svg">
<g id="image 18 [Vectorized]" opacity="0.5" clip-path="url(#clip0_0_33)">
<path id="Vector" d="M14.6581 0.0311107C15.292 0.0285141 15.9757 0.0158839 16.6115 0.0386569C16.6192 0.0390502 16.7092 0.0541941 16.7098 0.0556231C17.364 1.55866 17.9546 3.09186 18.587 4.60478C18.6764 4.81859 18.7684 5.10713 18.9042 5.28451C19.0195 5.22644 19.3286 4.38085 19.4006 4.21063C19.7968 3.25833 20.1872 2.30366 20.5719 1.34668C20.6763 1.09132 20.9976 0.22917 21.165 0.0552394C21.3479 0.000215049 22.869 0.027418 23.1537 0.0286238V7.86515H21.5492V4.5186C21.5491 4.31284 21.5668 2.83379 21.5231 2.75586C21.1928 3.17591 20.9903 4.28897 20.6607 4.77393C20.6307 4.81791 20.5862 5.07499 20.5507 5.14954C20.4743 5.30968 20.3946 5.47081 20.3344 5.63817C20.1282 6.08577 19.6471 7.52217 19.4213 7.83054C19.2604 7.86422 18.5492 7.88989 18.4147 7.83412C18.2735 7.77561 16.7518 3.72974 16.5289 3.20148C16.4876 3.10352 16.3593 2.78169 16.2781 2.74852C16.2538 2.87013 16.2645 3.99136 16.2646 4.18743L16.265 7.86515L14.6581 7.86438V0.0311107Z" fill="var(--fill-0, black)"/>
<path id="Vector_2" d="M2.81062 0.0369341C3.29583 -0.0324868 4.04801 0.0665596 4.55974 0.0295949C4.81396 0.0112345 4.91374 0.0290416 5.00099 0.271481C5.77326 2.41236 6.50944 4.56608 7.20916 6.73177C7.26878 6.91215 7.64683 7.74863 7.54773 7.85797C7.25243 7.9043 6.84872 7.85794 6.53501 7.8613C5.86422 7.86846 5.87659 8.01173 5.67225 7.38884C5.54424 6.99872 5.41464 6.44739 5.27017 6.11866C5.18097 6.06956 5.02582 6.08134 4.9191 6.08152H2.3934C2.3808 6.16675 2.36281 6.25107 2.33954 6.33401C2.28774 6.51309 1.89143 7.80834 1.81371 7.85125C1.61058 7.86405 0.178877 7.89174 0.088125 7.83434C0.299969 7.03817 0.777796 5.82688 1.05776 5.00048C1.50747 3.65304 1.97145 2.31044 2.44963 0.972855C2.51969 0.778989 2.68654 0.151804 2.81062 0.0369341ZM3.90126 4.75938C4.18286 4.76042 4.48812 4.78458 4.7659 4.73945L4.79015 4.71215C4.72075 4.40183 3.93044 1.88621 3.82582 1.81734C3.67826 2.1474 3.48438 2.8224 3.36967 3.18755C3.24854 3.57319 2.95113 4.35344 2.8784 4.73032C2.97319 4.79815 3.73362 4.76052 3.90126 4.75938Z" fill="var(--fill-0, black)"/>
<path id="Vector_3" d="M8.53344 0.0451262C8.67621 0.0102418 9.96912 0.0269151 10.2095 0.0285202L10.2087 4.40046C10.2087 4.88326 10.1764 6.09628 10.2272 6.50274H13.5656V7.86505H8.53344V0.0451262Z" fill="var(--fill-0, black)"/>
<path id="Vector_4" d="M13.0729 10.4338C13.0717 10.6034 13.0467 11.2294 13.1281 11.3368C13.2173 11.2707 13.2635 11.0734 13.3554 10.9724C14.0821 10.1748 15.5037 10.1429 16.272 10.8914C16.9947 11.5955 16.8254 12.775 16.825 13.7109L16.8232 16.3187L16.1508 16.3173L16.1517 13.3772C16.1517 12.9398 16.1659 12.4921 16.1258 12.0567C16.1193 11.9865 16.0015 11.7715 15.962 11.6892C15.4525 10.6243 13.6472 10.8571 13.2277 11.8464C13.0168 12.3443 13.0908 13.5298 13.0911 14.1294L13.0933 16.3187C12.8885 16.3197 12.6016 16.3123 12.4036 16.3249C12.502 16.0709 12.4406 11.1683 12.4421 10.4345C12.6306 10.4325 12.8906 10.4228 13.0729 10.4338Z" fill="var(--fill-0, black)"/>
<path id="Vector_5" d="M0 10.4434C0.190923 10.4063 0.536803 10.4067 0.725444 10.4492C0.837931 10.6819 0.913468 10.9397 1.00116 11.1831C1.19853 11.7309 1.3834 12.282 1.5746 12.8318C1.85195 13.6292 2.20718 14.4466 2.4097 15.2632C2.45143 15.3074 2.49498 15.3647 2.55673 15.3782C2.69401 14.8133 2.9515 14.2342 3.14461 13.6812C3.51958 12.6076 3.87656 11.5244 4.2874 10.4639C4.33984 10.422 4.39752 10.4295 4.46383 10.4269C4.58227 10.4223 4.93358 10.4016 5.011 10.4733C4.94376 10.6514 4.82532 10.8839 4.78954 11.0649C4.68837 11.4622 4.48265 11.8429 4.34447 12.2273L3.27474 15.2206C3.15319 15.5576 2.93891 15.971 2.88997 16.3189L2.58995 16.3199C2.49902 16.3199 2.2296 16.3412 2.16242 16.2986C2.07257 16.2417 0.641056 12.2166 0.508767 11.8443C0.443502 11.6606 0.0513857 10.4947 0 10.4434Z" fill="var(--fill-0, black)"/>
<path id="Vector_6" d="M29.6774 10.9199C29.6925 10.9146 29.744 10.899 29.7517 10.8901C30.1712 10.4078 30.7498 10.314 31.351 10.3421C31.3793 10.5622 31.3713 10.7994 31.3698 11.0226C30.7455 10.9996 30.3461 11.0088 29.8344 11.4562C29.665 11.6046 29.4352 11.9712 29.4278 12.1985C29.4275 12.2097 29.4275 12.2209 29.4278 12.2322C29.3199 12.3368 29.3205 12.6455 29.3381 12.7878C29.4038 13.3139 29.2351 16.0241 29.376 16.3249C29.1836 16.3127 28.9057 16.3197 28.7067 16.3187V10.4338C28.889 10.4227 29.149 10.4324 29.3375 10.4344C29.3375 10.5972 29.3122 11.2516 29.3729 11.3468L29.4248 11.3447C29.4729 11.2242 29.6623 10.9992 29.6774 10.9199Z" fill="var(--fill-0, black)"/>
<path id="Vector_7" d="M12.3989 16.325L12.3594 16.2991C12.3261 16.1588 12.3344 10.5573 12.36 10.4474L12.4374 10.4345C12.4359 11.1684 12.4973 16.0709 12.3989 16.325Z" fill="var(--fill-0, black)"/>
<path id="Vector_8" d="M29.3816 16.325C29.2407 16.0241 29.4094 13.314 29.3437 12.7878C29.3261 12.6456 29.3255 12.3369 29.4334 12.2322C29.4368 12.6627 29.4606 16.2525 29.4088 16.3127L29.3816 16.325Z" fill="var(--fill-0, black)"/>
<path id="Vector_9" d="M29.3362 10.4345L29.4074 10.4528C29.4768 10.6487 29.3901 11.1095 29.4605 11.1826C29.5095 11.1163 29.5305 10.9735 29.6761 10.92C29.6609 10.9992 29.4716 11.2243 29.4234 11.3447L29.3716 11.3469C29.3109 11.2516 29.3362 10.5973 29.3362 10.4345Z" fill="var(--fill-0, black)"/>
<path id="Vector_10" d="M34.0948 16.3496C33.7117 16.3286 33.2007 16.009 32.9271 15.7373C32.301 15.1153 32.0662 14.2842 32.0628 13.419C32.0598 12.5759 32.3068 11.6851 32.9154 11.0731C33.1948 10.7826 33.5825 10.6048 33.9372 10.4315C33.8731 10.4628 34.662 10.3342 34.6096 10.3318C35.0584 10.3524 35.5763 10.4756 35.9384 10.7539C36.033 10.8266 36.1941 10.8661 36.277 10.9672C36.6718 11.3358 37.0802 12.1059 37.0814 12.6472C37.0783 12.9457 37.0774 13.2442 37.0783 13.5428C36.5312 13.5423 33.0724 13.4831 32.7895 13.5646C32.7004 13.6639 32.6991 13.787 32.7846 13.8931C32.7769 14.2023 32.9453 14.6599 33.1242 14.9469C33.6787 15.8371 34.7117 15.9896 35.6358 15.6384C35.7758 15.5852 36.2696 15.1042 36.2872 14.9327C36.4152 14.8243 36.9889 14.9309 36.9195 15.178C36.7761 15.6907 35.9377 16.3237 35.4325 16.3496H34.0948ZM32.7815 12.9599H35.1198H36.4269C36.4204 12.4021 36.2459 11.853 35.8381 11.4541C35.522 11.1452 35.1349 10.9932 34.6935 10.9989C34.514 11.0012 34.3314 11.0047 34.1528 11.0256C33.5825 11.285 33.1448 11.642 32.9197 12.2445C32.8312 12.4816 32.7759 12.7058 32.7815 12.9599Z" fill="var(--fill-0, black)"/>
<path id="Vector_11" d="M7.85223 16.3497C7.42196 16.3057 6.9115 15.9848 6.62773 15.6728C5.30084 14.2142 5.63395 11.0518 7.723 10.4407C7.81059 10.4172 7.91762 10.4379 8.00306 10.4134C9.15846 10.0835 10.4693 11.016 10.7623 12.1452C10.8148 12.3483 10.8422 12.4065 10.8367 12.6226C10.8154 12.8919 10.8296 13.2583 10.8333 13.5352C10.3827 13.5348 6.63884 13.5056 6.54261 13.57C6.53644 14.7865 7.19156 15.8029 8.51414 15.8132C8.9734 15.8168 9.42495 15.6733 9.75868 15.3527C9.89255 15.227 10.0557 14.8935 10.1606 14.8824C10.3194 14.8658 10.5739 15.0497 10.7287 15.0587C10.808 15.2475 10.4453 15.5465 10.3564 15.6774C10.1319 16.0091 9.58102 16.3075 9.18684 16.3497H7.85223ZM6.54569 12.96H8.81301H10.1754C10.1584 12.373 10.0384 11.8536 9.59089 11.432C9.2038 11.0674 8.80468 10.9874 8.29175 11.0034C8.16745 11.0073 8.04346 11.0113 7.91978 11.0264C7.76587 11.1025 7.57371 11.1688 7.43276 11.2607C7.08484 11.4879 6.77949 11.96 6.64717 12.3489C6.58054 12.5454 6.53366 12.7517 6.54569 12.96Z" fill="var(--fill-0, black)"/>
<path id="Vector_12" d="M22.5161 10.4298L23.195 10.431C23.2265 11.3374 23.175 12.3206 23.1956 13.2387C23.2067 13.7417 23.1543 14.3585 23.2718 14.8555C23.34 15.0001 23.5633 15.2801 23.6691 15.3844C24.1888 15.8977 25.2794 15.811 25.7504 15.2679C25.85 15.1529 26.0616 14.9525 26.1051 14.8157C26.2994 14.2077 26.2421 13.5158 26.2418 12.8796L26.2421 10.4298L26.9034 10.4335C26.9037 11.0801 26.87 16.1639 26.941 16.325C26.7075 16.3202 26.4743 16.3182 26.2408 16.3188C26.2418 16.1662 26.2683 15.4602 26.1946 15.377C26.127 15.4089 26.1427 15.3962 26.1113 15.4664C25.9012 15.9351 25.3195 16.2809 24.8211 16.3496H24.0787C23.5738 16.2874 23.1987 16.0713 22.8927 15.6527C22.3943 14.9716 22.5137 14.0846 22.514 13.2755L22.5161 10.4298Z" fill="var(--fill-0, black)"/>
<path id="Vector_13" d="M39.7998 16.3496C39.7514 16.3433 39.703 16.3352 39.6549 16.3253C39.1928 16.2285 38.774 15.8752 38.5426 15.4708C38.4504 15.3097 38.4575 15.1641 38.3412 15.0207C38.3249 15.0002 38.3422 14.9566 38.348 14.9301C38.4097 14.8831 38.9149 14.7864 39.0096 14.7841C39.2835 16.5452 42.7954 15.8857 41.7871 14.2193C41.4419 13.6492 39.5546 13.7049 39.0284 13.1016C38.6534 12.6719 38.5689 12.5575 38.5186 11.9541C38.6321 10.7787 39.6314 10.3795 40.673 10.3456C41.3618 10.3231 42.5662 10.9951 42.5443 11.7221L42.5061 11.7576C42.358 11.7714 42.1733 11.8906 42.0428 11.8792C41.8661 11.8638 41.6501 11.1722 41.074 11.0107C40.6551 10.8933 40.116 10.9381 39.7332 11.1554C39.517 11.2781 39.3427 11.4649 39.2764 11.7083C39.2147 11.9349 39.2348 12.2663 39.3572 12.4715C39.6077 12.8909 40.7662 13.0646 41.2316 13.1875C41.61 13.2874 42.1597 13.5141 42.3885 13.8453C42.4891 13.9912 42.5384 14.1642 42.6273 14.3168V15.1643L42.623 15.1696C42.5283 15.2886 42.5008 15.455 42.4166 15.5798C42.1671 15.949 41.6011 16.2978 41.1677 16.3496H39.7998Z" fill="var(--fill-0, black)"/>
<path id="Vector_14" d="M19.0131 9.02394L19.7314 9.02394V10.4297H20.9386C20.9417 10.626 20.9436 10.8224 20.9442 11.0187H19.7428C19.7185 11.3919 19.7323 11.7846 19.7302 12.1598C19.7271 12.651 19.7286 13.1446 19.7302 13.6358C19.7363 14.1703 19.7166 14.7068 19.7505 15.2404C19.7533 15.2827 19.8289 15.3531 19.8548 15.3884C20.1126 15.7423 20.5657 15.765 20.9793 15.7047C21.0318 15.7823 21.1271 16.1767 21.1064 16.2956C21.0512 16.3152 21.0003 16.3327 20.9442 16.3495H20.2141C19.6818 16.2907 19.0979 15.8025 19.0532 15.2536C18.9387 13.8563 19.0516 12.4209 19.0066 11.0187H18.1537L18.1581 10.4297H19.009C19.0094 10.0519 18.9871 9.37723 19.0131 9.02394Z" fill="var(--fill-0, black)"/>
<path id="Vector_15" d="M26.9079 10.4334L26.9887 10.4473C27.0158 10.6145 27.005 11.1641 27.0047 11.3555L26.9998 13.1117L27.0029 15.2982C27.0032 15.4802 27.0161 16.1527 26.985 16.299L26.9455 16.3248C26.8745 16.1638 26.9082 11.08 26.9079 10.4334Z" fill="var(--fill-0, black)"/>
<path id="Vector_16" d="M37.0836 12.6473C37.1379 12.6895 37.1724 12.7046 37.1724 12.7912C37.1724 12.9986 37.1928 13.3831 37.1496 13.5724C36.906 13.7162 33.9132 13.5689 33.4181 13.6139C33.284 13.6261 32.9472 13.5845 32.8148 13.6421C32.7939 13.7456 32.7895 13.7878 32.7868 13.8932C32.7013 13.7871 32.7026 13.664 32.7917 13.5647C33.0745 13.4832 36.5334 13.5424 37.0805 13.5429C37.0796 13.2443 37.0805 12.9458 37.0836 12.6473Z" fill="var(--fill-0, black)"/>
<path id="Vector_17" d="M10.8373 12.6225L10.8993 12.6422C10.9441 12.8406 10.9283 13.3648 10.9265 13.5852C10.5616 13.6304 6.64383 13.6154 6.54328 13.5699C6.63951 13.5055 10.3833 13.5347 10.834 13.5351C10.8303 13.2582 10.8161 12.8918 10.8373 12.6225Z" fill="var(--fill-0, black)"/>
</g>
<defs>
<clipPath id="clip0_0_33">
<rect width="47" height="16.92" fill="white"/>
</clipPath>
</defs>
</svg>
