<svg preserveAspectRatio="none" width="100%" height="100%" overflow="visible" style="display: block;" viewBox="0 0 218 40.4608" fill="none" xmlns="http://www.w3.org/2000/svg">
<g id="image 33 [Vectorized]">
<path id="Vector" d="M119.392 3.14989C123.729 2.82316 126.688 5.83959 125.462 10.1999C124.311 14.2938 119.526 16.4269 116.051 18.3516C117.482 21.8022 119.279 24.8759 121.126 28.1084C122.722 24.406 124.785 16.7765 130.299 19.5101C132.194 20.45 132.616 23.493 130.366 24.1107C128.402 24.6499 129.096 21.497 127.935 20.6463C125.356 20.0689 122.902 27.495 122.048 29.5133C122.266 29.9751 122.385 30.15 122.68 30.5698C123.396 31.6968 124.873 33.4423 126.329 33.5425C127.461 33.6204 128.662 32.098 129.87 32.0243C130.239 32.2521 130.103 32.0897 130.22 32.5796C129.518 34.0925 126.859 35.6499 125.165 35.5627C122.9 35.4462 121.383 33.7556 119.962 32.2132C119.318 32.9813 118.565 33.6493 117.726 34.1951C115.758 35.483 113.353 35.9222 111.056 35.4137C106.549 34.4204 104.824 30.4498 105.845 26.187C106.729 22.4966 109.312 20.302 112.401 18.4148C109.999 11.768 111.338 4.25583 119.392 3.14989ZM119.085 31.3024C117.816 29.5581 116.666 27.7302 115.641 25.8309C115.245 25.1038 113.122 20.6148 112.976 20.5057C111.979 21.5695 111.156 22.4479 110.472 23.7574C107.763 28.9417 108.864 33.8243 115.404 33.5039C117.208 32.9916 117.692 32.5932 119.085 31.3024ZM115.487 16.7764L117.141 15.7843C119.403 14.2469 122.447 12.5626 122.933 9.65378C123.339 7.23466 122.467 5.48099 119.812 5.32212C113.984 6.08362 114.336 12.3953 115.487 16.7764Z" fill="var(--fill-0, #191715)"/>
<path id="Vector_2" d="M113.837 8.69244C113.739 10.4894 113.607 12.2892 113.807 14.0794C114.478 20.0615 117.893 26.0388 121.12 30.9738L120.726 31.0299C116.362 25.0509 111.118 16.2772 113.837 8.69244Z" fill="var(--fill-0, #191715)"/>
<path id="Vector_3" d="M121.117 30.9738C121.554 31.5598 121.893 32.0816 122.289 32.6969C121.542 32.0418 121.306 31.8249 120.723 31.0299L121.117 30.9738Z" fill="var(--fill-0, #191715)"/>
<path id="Vector_4" d="M169.682 4.8458C172.394 4.83367 177.758 4.4895 179.977 5.53154C183.69 7.27499 184.543 17.1458 179.932 18.655C184.542 20.3044 184.416 26.9628 183.061 30.7581C180.867 35.7932 174.289 34.3195 169.725 34.595C169.534 24.8029 169.78 14.6892 169.682 4.8458ZM174.944 31.0119C175.91 30.9777 176.766 31.0642 177.541 30.4919C178.453 28.351 178.453 24.1098 177.776 21.8408C177.357 20.4422 176.098 20.575 174.895 20.5648C175.106 23.4554 174.958 28.0377 174.944 31.0119ZM174.933 16.8609C175.782 16.798 176.488 16.8139 177.278 16.4697C178.011 14.4732 178.074 11.2859 177.345 9.25525C176.988 8.2579 175.775 8.36772 174.899 8.38393C175.059 10.8753 174.963 14.318 174.933 16.8609Z" fill="var(--fill-0, #191715)"/>
<path id="Vector_5" d="M4.59393 4.78554C7.50791 4.97016 11.3025 4.5264 13.9949 5.21896C18.208 6.30255 18.6572 13.9354 16.8574 17.0326C16.3087 17.977 15.7423 18.2614 14.7944 18.7283C14.9488 18.7773 15.1022 18.8294 15.2545 18.8844C19.3856 20.389 19.0227 27.5859 17.8096 30.8999C15.4368 35.7286 9.15095 34.3767 4.55101 34.5863C4.40441 28.2978 4.59965 21.6865 4.53671 15.3622C4.51395 13.0788 4.36135 6.80545 4.59393 4.78554ZM9.81258 30.9818C10.7483 30.9728 11.4972 31.0593 12.2792 30.5308C13.3141 28.4737 13.1324 24.2637 12.6325 21.993C12.2945 20.4574 11.0552 20.5738 9.76298 20.5771C9.76421 23.8949 9.67605 27.7031 9.81258 30.9818ZM9.8108 16.8491C10.5622 16.8043 11.3951 16.8225 12.0604 16.4811C12.854 14.69 12.7662 11.4325 12.2516 9.52745C11.9206 8.30215 10.8073 8.37696 9.74881 8.34085C9.73696 11.1772 9.75767 14.0133 9.8108 16.8491Z" fill="var(--fill-0, #191715)"/>
<path id="Vector_6" d="M158.036 4.38364C163.088 3.75362 164.926 6.94895 165.397 11.4757C165.873 16.0469 166.068 20.8129 165.647 25.3998C165.261 29.6099 164.905 34.3987 159.853 35.0374C154.497 35.5518 152.928 32.6967 152.263 27.796C151.81 23.2574 151.538 18.3825 152.012 13.8249C152.522 8.93739 152.537 5.07729 158.036 4.38364ZM159.32 31.7534C160.348 30.7586 160.139 27.4088 160.161 25.9857C160.199 23.6016 160.645 9.06356 159.436 7.76632C159.18 7.49069 158.793 7.45825 158.44 7.40498C157.514 8.26894 157.398 10.6995 157.424 11.802C157.493 14.7187 156.962 29.6287 157.959 31.4287C158.376 31.7666 158.756 31.7335 159.32 31.7534Z" fill="var(--fill-0, #191715)"/>
<path id="Vector_7" d="M38.0708 4.80947C40.9064 4.92187 46.3223 4.45671 48.8496 5.33539C52.7606 6.69503 53.1576 13.8457 51.3742 16.9243C50.5954 18.2685 49.8493 18.7352 48.3337 19.3127C53.3259 22.0185 51.1486 29.517 52.1568 34.3682L52.1972 34.5579C50.328 34.5242 48.6142 34.4955 46.7408 34.5737C46.3594 33.2517 46.3737 32.2886 46.3364 30.931C46.3362 30.0829 46.3485 29.2267 46.3337 28.3791C46.2812 25.3937 46.6615 23.008 43.5768 21.5639C43.3958 25.4404 43.5522 30.6389 43.5685 34.605C41.7514 34.4864 39.9289 34.4798 38.1112 34.5855C37.9663 31.5981 38.0832 27.5174 38.0838 24.4578L38.0708 4.80947ZM43.6246 17.151C44.5703 17.1476 45.4354 17.2295 46.2895 16.8184C46.9672 15.3074 47.4569 9.81666 45.4871 8.72121C45.1908 8.55635 43.9752 8.52528 43.5577 8.50661C43.5762 11.3409 43.5232 14.3366 43.6246 17.151Z" fill="var(--fill-0, #191715)"/>
<path id="Vector_8" d="M65.2328 4.8402C66.8526 4.84646 68.5549 4.88148 70.1637 4.77384L70.1398 24.6177C70.1407 27.651 70.2526 31.61 70.1141 34.5781C68.6433 34.5432 67.1544 34.4848 65.6859 34.5581C64.2664 29.8396 62.4814 24.1543 61.5382 19.3974C61.3662 22.9501 61.9284 26.8033 61.7285 30.4076C61.6533 31.7637 61.7966 33.2096 61.6995 34.5799C59.9669 34.5273 58.4056 34.4736 56.6755 34.5815C56.3875 24.9902 56.7501 14.5481 56.616 4.8511L61.6189 4.81704C62.7828 8.92007 63.875 13.0431 64.8952 17.1842C65.0035 17.8831 65.2807 18.6871 65.4943 19.3741C65.4769 18.6885 65.4807 17.5401 65.3457 16.9145C65.2086 12.869 65.3525 8.83355 65.2328 4.8402Z" fill="var(--fill-0, #191715)"/>
<path id="Vector_9" d="M143.038 4.83466C144.547 4.87377 146.459 4.88099 147.946 4.75727C147.984 5.67901 147.945 6.67717 147.934 7.60544C147.822 16.5846 148.051 25.5992 147.9 34.5744C146.427 34.5151 144.953 34.5084 143.48 34.5541C142.576 31.6498 140.403 24.6382 139.887 21.8997C139.711 21.1742 139.526 20.3274 139.319 19.62C139.3 20.4435 139.257 21.2792 139.353 22.0959C139.518 23.5704 139.488 25.9064 139.493 27.4428C139.501 29.7814 139.549 32.2558 139.488 34.5842C137.693 34.5404 136.273 34.493 134.474 34.5775C134.318 31.8105 134.44 27.8695 134.44 25.0386C134.463 18.3072 134.45 11.5758 134.405 4.84448C136.055 4.85687 137.745 4.82949 139.399 4.82172C140.377 7.95506 141.158 11.3961 142.042 14.5749C142.486 16.1715 142.747 17.6948 143.274 19.3086C143.046 14.2914 143.083 9.83804 143.038 4.83466Z" fill="var(--fill-0, #191715)"/>
<path id="Vector_10" d="M24.8804 4.56747C26.4658 4.66244 28.3525 4.62048 29.9623 4.62198C30.4749 6.3172 31.306 12.0691 31.6578 14.125L35.1401 34.573C34.1159 34.5451 30.4144 34.7069 29.9006 34.4772C29.1914 33.8318 29.2208 32.1467 29.1053 31.0817L29.0087 29.8282C27.9729 29.701 26.7326 29.7299 25.6745 29.7241C25.6666 31.0598 25.4061 33.2555 25.2123 34.5891C23.6246 34.5501 22.1045 34.5121 20.517 34.5463C21.1973 28.1679 22.5301 21.6189 23.3003 15.2256C23.7199 11.7424 24.2937 8.03122 24.8804 4.56747ZM26.1576 26.4003L28.6526 26.3744L27.5637 16.4842C27.5438 15.7676 27.4906 15.1437 27.4248 14.4298C27.4501 14.0785 27.5098 13.3698 27.2664 13.1275C27.0604 13.6157 27.1217 13.9787 27.138 14.5129C27.0632 15.386 26.942 16.679 26.9713 17.545C26.6416 18.511 26.2319 25.0461 26.1576 26.4003Z" fill="var(--fill-0, #191715)"/>
<path id="Vector_11" d="M27.1428 14.5129L27.4296 14.4298C27.4954 15.1438 27.5487 15.7677 27.5686 16.4842C27.0475 16.9141 27.1978 16.8045 26.9761 17.545C26.9469 16.679 27.068 15.386 27.1428 14.5129Z" fill="var(--fill-0, #006B6D)" fill-opacity="0.0392157"/>
<path id="Vector_12" d="M27.1386 14.5129C27.1224 13.9787 27.0611 13.6157 27.2671 13.1275C27.5104 13.3698 27.4508 14.0786 27.4254 14.4298L27.1386 14.5129Z" fill="var(--fill-0, #191715)" fill-opacity="0.776471"/>
<path id="Vector_13" d="M95.0346 4.38271C95.6986 4.30191 96.8889 4.41895 97.5494 4.55152C98.8931 4.80903 100.077 5.59656 100.833 6.7367C102.096 8.65292 102.062 11.2797 101.614 13.4448L97.0127 13.4436C97.0889 11.8335 97.5288 8.35562 95.7598 7.53376C93.9171 7.58989 94.2287 11.6989 94.771 12.8961C97.0453 17.9743 103.342 21.6726 102.744 27.8666C102.256 32.913 99.9007 35.4457 94.7681 35.0116C94.5643 34.9751 94.3611 34.9349 94.1588 34.891C89.2619 33.8198 88.7538 28.5725 89.6914 24.4504C91.2202 24.4966 93.0706 24.5275 94.5779 24.365C94.3966 25.5798 93.5656 31.4444 96.1496 31.5708C97.4065 31.373 97.6596 29.6038 97.7159 28.5476C98.0651 21.9934 90.1334 18.6958 89.3709 12.2521C89.1473 10.3623 89.4729 7.98366 90.6188 6.44185C91.7299 4.94692 93.3221 4.59117 95.0346 4.38271Z" fill="var(--fill-0, #191715)"/>
<path id="Vector_14" d="M85.1496 4.80655C85.4804 4.77385 85.3293 4.74347 85.6196 4.8932C85.877 5.66561 85.7524 8.45519 85.7308 9.37869C83.845 9.35512 81.9587 9.35894 80.073 9.39C80.0933 12.0184 80.0857 14.6469 80.0503 17.2752L85.1139 17.2338C85.1924 18.5538 85.0806 20.0449 85.1533 21.4931C83.4504 21.4276 81.7544 21.5178 80.0581 21.4133C80.0876 24.2868 80.085 27.1604 80.0501 30.0338C81.7069 29.9052 84.7169 29.9761 86.5583 29.9402L86.544 33.7969C86.5525 34.1435 86.59 34.2096 86.4098 34.5039C85.8063 34.6174 83.6756 34.5126 82.8851 34.5183C80.176 34.5377 77.4613 34.434 74.7496 34.5893C74.6041 31.629 74.7286 27.5649 74.7292 24.5365L74.7156 4.82836C77.8978 4.93286 81.9781 4.87386 85.1496 4.80655Z" fill="var(--fill-0, #191715)"/>
<path id="Vector_15" d="M212.484 4.8079C212.554 4.797 212.759 4.82507 212.841 4.83311C213.151 5.37402 213.013 8.53325 213.001 9.38154C211.148 9.40266 209.259 9.36778 207.391 9.38468L207.383 17.2759L212.334 17.2259C212.447 18.2058 212.394 20.4227 212.396 21.4995C210.717 21.4265 209.011 21.4812 207.318 21.4316C207.51 23.1202 207.387 28.0996 207.382 30.0387C208.744 29.9045 212.279 29.9771 213.826 29.9324L213.829 34.2056L213.795 34.3799C213.739 34.4364 213.682 34.493 213.625 34.5495C210.169 34.536 205.392 34.4011 202.057 34.5849C201.943 31.7428 202.061 28.4018 202.039 25.5099C201.988 18.6232 202.099 11.7095 202.003 4.82139C205.496 4.87044 208.991 4.86595 212.484 4.8079Z" fill="var(--fill-0, #191715)"/>
<path id="Vector_16" d="M192.519 4.80697L192.763 4.77508L192.96 4.94962C193.092 5.60144 193.021 12.2797 193.021 13.2591L193.029 24.0049C193.029 25.8735 193.092 28.1747 192.992 30.0154C194.995 29.9057 197.17 30.0319 199.301 29.9196C199.34 31.4501 199.313 33.0312 199.305 34.566L195.142 34.5012C192.608 34.4994 190.029 34.4676 187.5 34.5762C187.428 24.714 187.635 14.6903 187.456 4.84866C189.145 4.85275 190.831 4.83871 192.519 4.80697Z" fill="var(--fill-0, #191715)"/>
<path id="Vector_17" d="M139.318 19.6199C139.525 20.3273 139.71 21.1741 139.886 21.8996L139.352 22.0958C139.256 21.2791 139.299 20.4434 139.318 19.6199Z" fill="var(--fill-0, #191715)" fill-opacity="0.0666667"/>
<path id="Vector_18" d="M65.3481 16.9146C65.4831 17.5401 65.4793 18.6886 65.4968 19.3742C65.2831 18.6872 65.006 17.8832 64.8977 17.1843L65.1864 17.1387L65.3481 16.9146Z" fill="var(--fill-0, #191715)" fill-opacity="0.0745098"/>
</g>
</svg>
