<svg preserveAspectRatio="none" width="100%" height="100%" overflow="visible" style="display: block;" viewBox="0 0 40 19.6078" fill="none" xmlns="http://www.w3.org/2000/svg">
<g id="image 17 [Vectorized]" opacity="0.5">
<path id="Subtract" d="M22.1353 9.06368C22.9786 9.0963 24.0216 9.06727 24.8843 9.07247C25.074 10.3588 25.38 11.64 25.5425 12.9328C25.5867 13.2844 25.6161 13.6335 25.6734 13.9836C25.7593 12.4354 26.194 10.5968 26.4556 9.06466L29.1538 9.0715C29.1411 9.42492 29.1466 9.82208 29.1519 10.1789C29.1905 12.7922 29.1008 15.4331 29.1568 18.0442L27.2505 18.0461C27.2651 16.34 27.2347 14.6611 27.2837 12.9494L27.2818 12.9484C27.3143 12.7321 27.3279 12.0924 27.3247 11.8752C27.2634 12.2599 27.2149 12.5328 27.1685 12.9348H27.1695C27.0067 14.1201 26.7628 15.2968 26.5406 16.4709C26.4609 16.8919 26.2865 17.6457 26.2408 18.0471C25.7663 18.0465 25.2437 18.0564 24.773 18.0422L23.8618 13.1594L23.7993 13.3859C23.7324 13.6297 23.7793 14.5489 23.7827 14.8527L23.7915 17.0217C23.7917 17.1795 23.7999 17.7348 23.7681 17.8635C23.7594 17.9465 23.7577 17.9523 23.731 18.0315C23.5106 18.0792 22.4736 18.0365 22.1324 18.0578L22.1353 9.06368ZM23.6704 11.8254C23.6377 12.2316 23.7339 13.0749 23.7388 13.5549L23.7456 16.5168C23.7458 16.7563 23.731 17.6652 23.7632 17.8635C23.795 17.7345 23.7859 17.1795 23.7857 17.0217L23.7779 14.8527C23.7744 14.5489 23.7265 13.6297 23.7935 13.3859L23.857 13.1594C23.8483 12.8479 23.7312 12.1507 23.6704 11.8254Z" fill="var(--fill-0, black)"/>
<path id="Subtract_2" d="M18.5515 9.06273C19.4269 9.08163 20.3559 9.07003 21.235 9.07151L21.2341 18.0491C20.6062 18.0455 19.9781 18.0456 19.3503 18.0491L19.3513 13.7961C19.3546 13.2667 19.4279 12.575 19.3962 12.093C19.3512 12.2763 19.3111 12.6231 19.279 12.8254C19.2076 13.2681 19.1331 13.7108 19.0563 14.1526C18.8233 15.4554 18.5746 16.7561 18.3102 18.053C17.835 18.0405 17.3253 18.0496 16.8474 18.051C16.8266 17.8689 16.7956 17.7002 16.7604 17.5207C16.4377 15.8748 16.103 14.234 15.8669 12.5725C15.8678 12.5705 15.8688 12.5686 15.8698 12.5666C15.8634 12.3678 15.8012 12.028 15.7682 11.8205C15.7605 12.1079 15.7653 12.6245 15.8132 12.9172C15.8129 12.9233 15.8135 12.9298 15.8132 12.9358C15.8083 13.4643 15.8361 14.0516 15.8405 14.5881L15.8415 18.0549L14.2341 18.0559L14.235 9.06663L16.9479 9.07151C17.2854 10.7137 17.5624 12.3679 17.778 14.0305C17.8523 12.6102 18.2493 10.4982 18.5515 9.06273Z" fill="var(--fill-0, black)"/>
<path id="Vector" d="M11.5808 9.0645L13.368 9.07258L13.3704 10.7482L13.3715 14.2368C13.3728 15.2526 13.5301 16.7575 12.8031 17.5409C12.0096 18.4225 9.97501 18.4194 9.14197 17.6112C8.2755 16.7706 8.5068 14.9931 8.49107 13.8561C8.46906 12.265 8.51067 10.6586 8.49259 9.06397C9.09346 9.08642 9.83039 9.06964 10.4392 9.07199C10.4659 11.3796 10.4061 13.706 10.4573 16.0141C10.4626 16.2558 10.5616 16.3427 10.737 16.4843C10.8331 16.4949 10.9296 16.5018 11.0262 16.5048C11.3214 16.5135 11.5363 16.3314 11.5541 16.0418C11.6009 15.2771 11.5797 14.4864 11.5794 13.7203L11.5808 9.0645Z" fill="var(--fill-0, black)"/>
<path id="Vector_2" d="M5.15666 8.91904C5.80923 8.82524 6.74326 9.01985 7.21199 9.49688C7.89796 10.1951 7.86409 11.1327 7.87462 12.0336L6.07536 12.0336C6.08301 11.6709 6.13957 10.9511 5.88641 10.7037C5.78926 10.609 5.65669 10.5597 5.52127 10.5679C5.37827 10.5757 5.24428 10.6403 5.14901 10.7472C4.97406 10.9439 4.98387 11.1791 4.99078 11.4246C5.01567 12.307 6.27452 12.766 6.88152 13.3109C7.51765 13.8571 7.80174 14.5093 7.86081 15.3312C7.97908 16.9767 7.46034 18.0794 5.67771 18.1966C5.54137 18.2 5.40496 18.1999 5.26861 18.1964C3.15477 18.14 3.0062 16.5083 3.05825 14.8555C3.57849 14.8832 4.28595 14.8635 4.83152 14.873C4.82839 15.2269 4.75251 16.1289 5.00028 16.3915C5.16954 16.5708 5.60186 16.5898 5.76979 16.365C5.98666 16.0748 5.95672 15.4593 5.8087 15.1341C5.45576 14.4972 4.67 14.1759 4.10979 13.732C3.16499 12.994 2.93006 11.8922 3.08161 10.7593C3.24849 9.51171 3.98081 9.02267 5.15666 8.91904Z" fill="var(--fill-0, black)"/>
<path id="Vector_3" d="M10.8388 1.50777C11.417 1.52864 12.104 1.51071 12.6907 1.51062C12.8535 2.63613 13.0791 3.6478 13.213 4.80068C13.3619 3.86207 13.4971 2.41715 13.7625 1.50907L15.5625 1.51148L15.5616 7.56755L14.2713 7.56557C14.2705 6.27313 14.257 5.14065 14.329 3.85195C14.3361 3.77018 14.3544 3.67464 14.3248 3.60148C14.2929 3.70275 14.277 3.80508 14.2629 3.91C14.0983 5.1382 13.8207 6.3469 13.6014 7.56566C13.2686 7.56755 12.9358 7.56495 12.603 7.55789C12.5227 7.21402 12.4962 6.76579 12.4041 6.4457C12.1414 5.53251 12.1375 4.33709 11.8409 3.47328C11.9732 4.59978 11.9192 6.38074 11.917 7.56839C11.5592 7.56229 11.192 7.56647 10.8333 7.56638L10.8388 1.50777Z" fill="var(--fill-0, black)"/>
<path id="Vector_4" d="M32.5061 9.06301C33.9393 9.11586 35.6578 9.06626 37.1188 9.06976V10.7624L35.8089 10.7649L35.8077 16.8164L35.8086 18.0448C35.165 18.0539 34.499 18.0308 33.8588 18.0577C33.8055 15.6985 33.8547 13.1377 33.851 10.765L32.5064 10.7634L32.5061 9.06301Z" fill="var(--fill-0, black)"/>
<path id="Subtract_3" d="M29.9676 1.50908C31.8446 1.56629 33.547 1.08436 33.3202 3.78349C33.2307 4.84813 33.6173 6.31404 32.8924 7.16924C32.3154 7.71518 30.7796 7.57017 29.9569 7.56572C29.9626 5.61625 29.9089 3.44039 29.9676 1.50908ZM31.2674 2.65361C31.2581 3.89213 31.2507 5.18417 31.2664 6.42314C31.4825 6.4146 31.7135 6.41699 31.9168 6.34307C32.1149 6.01768 31.9649 3.84924 32.0106 3.36162C32.0725 2.70438 31.8467 2.66027 31.2674 2.65361Z" fill="var(--fill-0, black)"/>
<path id="Subtract_4" d="M25.6612 1.42561C27.6044 1.25568 27.6328 2.82251 27.5459 4.27913C27.4606 5.70987 28.0312 7.29263 26.1621 7.6678C25.2448 7.72538 24.2606 7.41072 24.2032 6.36799C24.139 5.2048 24.1424 3.8643 24.21 2.69905C24.2575 1.88216 24.9166 1.51661 25.6612 1.42561ZM25.7032 2.56331C25.6078 2.62541 25.505 2.70403 25.5 2.83186C25.456 3.96038 25.4601 5.10909 25.4971 6.23811C25.5049 6.4778 25.7755 6.56229 25.9766 6.55842C26.0951 6.46494 26.1962 6.39425 26.2139 6.23225C26.2503 5.89795 26.2664 2.80132 26.1504 2.66487C26.0699 2.57125 25.9315 2.55881 25.8155 2.5594C25.778 2.55974 25.7406 2.56103 25.7032 2.56331Z" fill="var(--fill-0, black)"/>
<path id="Vector_5" d="M20.0315 1.50892C20.5823 1.52211 21.1753 1.51211 21.7296 1.51322C21.8853 2.18016 22.1168 2.87585 22.2837 3.54446C22.3937 3.98508 22.4756 4.42396 22.5732 4.86743C22.5968 4.63725 22.5737 4.04245 22.573 3.78369L22.5712 1.50985L23.6534 1.51468L23.6561 7.56576L23.1746 7.56722C22.7913 7.56904 22.408 7.5661 22.0248 7.55839C22.0091 7.40031 21.9745 7.24715 21.9337 7.09387C21.6367 5.97802 21.3229 4.86545 21.0928 3.73338C21.0825 4.08458 21.1147 4.46019 21.1167 4.81725L21.1191 7.5678L20.0306 7.56582L20.0315 1.50892Z" fill="var(--fill-0, black)"/>
<path id="Vector_6" d="M30.1172 9.06675C30.7414 9.08204 31.4236 9.06885 32.0527 9.06969C32.079 9.96303 32.0617 10.9344 32.0617 11.8332L32.0633 18.0461C31.4215 18.054 30.762 18.0456 30.1187 18.0451C30.0918 16.9565 30.1105 15.7881 30.1103 14.6932L30.1172 9.06675Z" fill="var(--fill-0, black)"/>
<path id="Vector_7" d="M3.06661 1.50988L4.36441 1.51495L4.36717 3.8604L5.12088 3.86173C5.12026 3.0778 5.12398 2.2939 5.132 1.51L6.41246 1.51381L6.41045 7.56291L6.115 7.56746L5.11992 7.56467C5.12571 6.74728 5.10286 5.79248 5.13559 4.98697C4.87887 4.98167 4.62206 4.98003 4.36528 4.98207L4.3667 7.56703L3.06373 7.56727L3.06661 1.50988Z" fill="var(--fill-0, black)"/>
<path id="Subtract_5" d="M16.9073 1.50633C17.4643 1.52017 18.0611 1.51041 18.6212 1.51122C18.8307 2.99966 19.1672 4.50508 19.4024 5.99266C19.484 6.50911 19.5668 7.05585 19.672 7.5659C19.2257 7.56857 18.7793 7.56778 18.3331 7.562C18.3201 7.42332 18.2942 7.27316 18.2735 7.13426L18.2227 6.74364H17.2169L17.1046 7.56883C16.7 7.56456 16.2953 7.56357 15.8907 7.56493C15.9386 7.17078 16.0479 6.71773 16.1104 6.3159C16.2635 5.33321 16.4531 4.35617 16.6065 3.37254C16.6988 2.78118 16.8663 2.10209 16.9073 1.50633ZM17.668 3.52977C17.6772 3.97056 17.466 5.2633 17.3858 5.68504L18.0196 5.687C17.9398 4.95652 17.8539 4.22669 17.7628 3.49754L17.668 3.52977Z" fill="var(--fill-0, black)"/>
<path id="Vector_8" d="M6.99915 1.50863L8.32259 1.51529C8.31974 2.10968 8.2473 6.22154 8.40086 6.42646C8.46243 6.50866 8.56847 6.54386 8.66683 6.55213C8.78302 6.56188 8.85445 6.52842 8.93928 6.44866C8.989 6.40191 9.02717 6.34838 9.04067 6.28046C9.13024 5.83027 9.07011 5.20448 9.06959 4.73544L9.07086 1.50999L10.2796 1.51727L10.2793 2.63677L10.2803 4.98934C10.2806 5.95139 10.4484 7.30275 9.28051 7.59284C7.77364 7.96718 6.85544 7.19649 6.99268 5.67383C7.0137 5.4407 6.99559 5.04201 6.99565 4.7908L6.99915 1.50863Z" fill="var(--fill-0, black)"/>
<path id="Vector_9" d="M35.1885 1.42543C35.6368 1.36029 36.2337 1.48171 36.557 1.81224C37.0155 2.28112 37.0195 2.90824 37.0269 3.51793L35.8238 3.5236C35.8241 3.28796 35.8223 3.05236 35.818 2.81679C35.7266 2.66663 35.6248 2.54053 35.4337 2.5388C35.1446 2.53617 35.0452 2.88704 35.0734 3.11431C35.1511 3.74406 35.8628 3.97858 36.2947 4.33911C36.7158 4.67496 36.9647 5.11283 37.0062 5.6593C37.0935 6.80372 36.7892 7.55162 35.5762 7.6753L35.478 7.67697C33.908 7.69769 33.7625 6.72716 33.7774 5.43465L34.9588 5.43858C34.9548 5.66657 34.8833 6.60682 35.3563 6.58982C35.4851 6.58521 35.6149 6.42038 35.6885 6.31688C35.7378 5.2897 35.344 5.27549 34.5632 4.71694C33.6833 4.08762 33.521 2.80716 34.0854 1.92629C34.3096 1.57614 34.8121 1.46871 35.1885 1.42543Z" fill="var(--fill-0, black)"/>
<path id="Vector_10" d="M28.0916 1.5093L29.3822 1.51398L29.3886 7.5654L28.087 7.5658C28.0824 7.30268 28.0813 7.03456 28.0842 6.77153C28.1035 5.02172 28.0515 3.2576 28.0916 1.5093Z" fill="var(--fill-0, black)"/>
</g>
</svg>
