<svg preserveAspectRatio="none" width="100%" height="100%" overflow="visible" style="display: block;" viewBox="0 0 250 52.005" fill="none" xmlns="http://www.w3.org/2000/svg">
<g id="image 35 [Vectorized]">
<path id="Subtract" d="M7.23861 5.48868C19.3837 5.22396 32.3376 5.47692 44.5179 5.59805C54.4216 5.69644 59.3778 18.9984 49.5609 25.3881C51.394 26.5919 53.1619 28.3078 54.0443 30.3324C55.1957 32.9505 55.2425 35.9225 54.1742 38.5756C52.968 41.6343 50.5534 43.4262 47.6439 44.6791C44.9258 45.5962 38.8213 45.297 35.7913 45.2982L21.1888 45.3041L11.7874 45.3051C10.1165 45.3051 7.58931 45.3721 5.98763 45.1762C5.91273 44.4508 5.93922 43.3162 5.9349 42.559C7.14063 42.4268 10.3628 42.6092 10.6058 42.1654C11.3526 40.7981 11.2851 27.9161 10.637 27.1469C9.72061 26.6371 7.24176 26.7743 5.98372 26.7104C5.90673 25.8954 5.94187 24.8921 5.94857 24.06C7.30133 23.89 11.0123 24.3995 10.9691 22.6947C10.9074 20.2547 11.5772 10.2749 10.6283 8.6254C9.80231 8.13604 7.34537 8.34102 6.00814 8.15372C5.95026 7.3886 5.75607 6.39709 6.1097 5.76505C6.588 5.43821 6.61412 5.52943 7.23861 5.48868ZM46.1849 27.142C42.4663 26.4507 37.9051 26.9268 34.0902 26.7768C27.9457 26.8045 21.7615 26.7189 15.6361 26.7865C15.2503 26.792 14.8643 26.8013 14.4788 26.8149C13.2996 27.5167 13.3733 29.3845 13.5531 30.5932C13.8945 32.8883 13.0539 40.2573 13.8177 41.9438C15.1806 42.7655 24.8686 42.4731 27.3949 42.4721L38.182 42.4633C41.9332 42.4585 46.4316 42.9743 49.4593 40.4789C50.7065 39.2292 51.5053 38.2692 52.0667 36.476C53.3013 32.5328 50.1496 27.8793 46.1849 27.142ZM36.8402 8.30313C29.6753 8.39621 22.4231 8.16233 15.2689 8.30606C14.9874 8.31276 14.7061 8.32489 14.4251 8.34122C13.172 9.25891 13.508 11.106 13.5511 12.5805C13.6444 15.7715 13.5254 18.937 13.5804 22.1234C13.5888 22.4334 13.7217 23.4858 14.0482 23.5775C15.6791 24.0347 17.677 23.8891 19.3675 23.8871L26.639 23.8881L38.2943 23.8852C41.8198 23.8824 46.4374 24.3248 49.3636 22.0883C49.453 22.0199 49.5405 21.9491 49.6273 21.8774C53.0207 18.4425 53.5596 14.249 49.8958 10.7084C48.8514 9.68213 47.5322 8.97915 46.098 8.68497C43.4039 8.12922 39.6465 8.26671 36.8402 8.30313Z" fill="var(--fill-0, #191715)"/>
<path id="Vector" d="M87.237 24.3905C86.8226 24.4078 85.7169 24.4811 85.4337 24.2316C85.9871 24.0429 86.7257 24.1092 87.3263 24.1262L87.237 24.3905Z" fill="var(--fill-0, #191715)"/>
<path id="Subtract_2" d="M71.865 11.8695C76.5715 12.1327 86.4806 10.712 90.196 13.3012C91.5241 14.2288 92.4273 15.6481 92.7048 17.2445C93.3289 20.7473 90.6562 23.5534 87.3259 24.1264L87.2371 24.391C93.2181 25.3881 96.476 30.9216 91.9324 35.9193C88.2389 39.2389 82.4796 38.1753 77.8943 38.3383C75.9767 38.4064 72.9625 38.4726 71.2527 38.2504C70.9646 38.011 71.0433 38.0506 70.905 37.6459C71.5953 35.9512 74.8383 38.474 74.6941 32.3119C74.5655 26.8246 74.9429 20.7157 74.5447 15.1762C74.5076 14.6588 73.772 13.8917 73.4382 13.5141C72.7343 13.3748 71.1081 13.1995 70.8826 12.3949C71.0967 12.1238 71.5324 11.851 71.865 11.8695ZM79.0749 25.1967C79.0759 26.7642 78.6747 35.1648 79.5896 36.0893C80.2874 36.7925 81.6277 36.7987 82.5456 36.7729C84.2918 36.7235 86.4248 36.6585 87.738 35.3402C88.8945 34.0609 89.1811 33.2395 89.2605 31.5238C89.5806 24.611 84.0186 25.1753 79.0749 25.1967ZM79.0798 13.3637C79.0855 16.6474 79.1687 20.3011 79.0437 23.5561C81.7007 23.5842 84.7357 23.9909 86.8298 22.2563C87.2142 21.7724 87.6669 21.1953 87.7966 20.5863C89.4614 12.7614 84.1855 13.3358 79.0798 13.3637Z" fill="var(--fill-0, #191715)"/>
<path id="Subtract_3" d="M235.493 19.1126C247.61 17.746 246.371 37.2344 236.326 38.6478C234.542 38.8986 232.533 38.9369 231.015 37.8412C231.008 39.3496 230.686 42.896 231.28 44.1058C231.891 45.351 233.698 45.2345 234.788 45.513C235.11 45.9201 235.056 45.7504 235.112 46.2337C234.706 47.0288 231.576 46.7734 230.679 46.7572C229.214 46.7601 225.3 46.8514 224.007 46.6703C223.792 46.4004 223.799 46.2726 223.763 45.931C224.525 44.476 226.841 46.0938 226.857 43.2591C226.896 36.6282 226.981 29.9734 226.827 23.346C226.79 21.7822 224.427 22.8741 223.598 21.9701C223.545 21.6045 223.678 21.4452 223.864 21.1224C224.921 20.5248 229.147 19.5006 230.452 19.4037C230.524 20.6238 230.479 21.9945 230.462 23.2298C230.632 22.9016 230.811 22.5765 230.995 22.2562C232.088 20.3868 233.491 19.6393 235.493 19.1126ZM234.931 22.3656C233.225 22.5028 232.208 22.942 231.026 24.2494C230.967 27.7953 230.915 32.0473 231.02 35.5824C232.478 36.6248 233.899 37.4161 235.734 36.8841C240.201 35.0936 240.624 29.4954 239.345 25.3646C238.733 23.387 236.956 22.4196 234.931 22.3656Z" fill="var(--fill-0, #191715)"/>
<path id="Subtract_4" d="M212.262 19.106C217.677 19.0569 222.101 23.4132 222.142 28.8296C222.181 34.2461 217.818 38.6665 212.405 38.6958C207.004 38.7249 202.6 34.3737 202.561 28.9712C202.522 23.569 206.863 19.1551 212.262 19.106ZM216.652 24.272C215.928 21.6007 213.696 20.7768 211.11 21.0748C208.04 22.1842 207.693 25.1367 207.543 28.0455C207.338 32.049 208.093 37.8335 213.584 36.6734C218.007 35.1089 217.667 28.0143 216.652 24.272Z" fill="var(--fill-0, #191715)"/>
<path id="Subtract_5" d="M104.579 19.2763C109.897 18.2697 115.023 21.7721 116.02 27.0946C117.017 32.4172 113.507 37.5386 108.185 38.5272C102.876 39.5131 97.7726 36.0125 96.7778 30.703C95.7831 25.3935 99.2733 20.2807 104.579 19.2763ZM110.651 24.2353C109.671 21.3953 107.826 20.7834 105.092 21.0829C103.667 21.666 102.928 22.3429 102.329 23.8124C100.691 27.8301 100.809 38.2463 107.575 36.703C108.935 36.2313 109.729 35.6398 110.321 34.2704C111.59 31.3318 111.689 27.2446 110.651 24.2353Z" fill="var(--fill-0, #191715)"/>
<path id="Subtract_6" d="M126.691 19.2788C132.021 18.2714 137.154 21.7916 138.134 27.1284C139.116 32.4653 135.573 37.5834 130.235 38.5405C124.931 39.4911 119.857 35.9746 118.881 30.6733C117.906 25.3721 121.397 20.2796 126.691 19.2788ZM132.79 24.3208C132.11 21.6323 129.875 20.7609 127.284 21.0757C126.013 21.5321 124.983 22.3519 124.499 23.645C122.908 27.9039 122.689 37.9318 129.654 36.7085C134.12 35.2177 133.735 28.0467 132.79 24.3208Z" fill="var(--fill-0, #191715)"/>
<path id="Vector_2" d="M184.601 9.48683C185.072 9.43562 185.742 9.29216 186.043 9.68277C186.304 11.7878 186.109 21.2018 185.716 23.1126C186.868 20.7404 188.561 19.3685 191.239 19.0708C200.65 18.0254 197.608 29.8605 198.191 36.0207C198.936 36.5281 200.945 37.1748 201.076 37.3603C201.047 37.7105 201.063 38.0047 200.84 38.2711C199.08 38.5632 194.304 38.2323 192.234 38.3112C191.938 38.3223 191.86 38.1379 191.715 37.9338C191.573 36.1982 194.188 37.3194 194.081 34.8219C193.948 31.7117 194.39 27.9636 193.986 24.9124C192.649 20.8454 188.007 21.2078 186.1 24.5639C186.092 27.4481 185.926 33.4378 186.265 36.0624C186.845 36.5349 187.809 36.9183 188.519 37.2735C188.53 37.7451 188.546 37.86 188.334 38.2728C187.483 38.3942 179.937 38.4237 179.482 38.2159C178.886 36.8858 180.854 36.8554 182.02 35.8779C182.336 34.4302 182.362 13.6277 182.082 12.9285C181.608 11.7438 180.347 12.2039 179.418 11.8144C179.211 11.3813 179.273 11.5129 179.409 10.9333C180.052 10.6058 183.643 9.73803 184.601 9.48683Z" fill="var(--fill-0, #191715)"/>
<path id="Vector_3" d="M170.298 19.0159C172.424 18.9595 174.334 19.4086 176.291 20.1729C176.314 21.2579 176.712 24.4562 175.599 24.8894C175.205 24.7715 174.933 24.5683 174.709 24.2064C173.833 22.793 172.861 21.1115 171.039 20.8848C169.382 20.6785 166.819 21.1908 166.865 23.3384C166.92 25.9436 170.267 26.3754 172.144 27.1275C175.133 28.193 177.144 29.4293 177.108 32.8728C177.097 34.3898 176.653 35.6656 175.533 36.7464C173.498 38.7108 171.234 38.7849 168.581 38.7537C166.249 38.5013 165.482 38.163 163.463 36.969L163.449 32.0552C164.138 32.0007 164.763 31.8068 165.039 32.4956C166.3 35.298 167.066 36.6182 170.233 36.8398C173.179 37.0459 174.922 33.9482 172.962 32.148C171.457 30.7672 166.923 30.3942 165.288 28.673C164.215 27.5426 163.585 26.7343 163.483 25.0934C163.409 23.676 163.896 22.2866 164.837 21.2254C166.316 19.558 168.192 19.1402 170.298 19.0159Z" fill="var(--fill-0, #191715)"/>
<path id="Vector_4" d="M145.682 9.48391C146.206 9.42334 146.431 9.3858 146.968 9.46786C147.703 10.488 146.656 32.4502 147.414 35.4812C147.903 37.4331 149.147 36.509 149.673 37.53C149.639 38.0057 149.678 37.84 149.387 38.2648C147.748 38.4756 142.641 38.344 140.747 38.339L140.373 38.2859C138.876 36.2512 143.234 37.6737 143.223 34.7178C143.196 27.5618 143.333 20.3279 143.173 13.1804C143.138 11.6154 140.959 12.2489 140.306 11.8333C140.128 11.3426 140.175 11.4995 140.261 10.9238C140.911 10.6323 144.697 9.73859 145.682 9.48391Z" fill="var(--fill-0, #191715)"/>
<path id="Vector_5" d="M152.857 19.4721C153.953 19.4432 159.874 19.3675 160.714 19.5716C160.856 20.0333 160.885 20.1186 160.793 20.5871C160.238 21.024 158.668 21.3786 157.68 22.0728C155.72 23.4502 153.666 25.585 151.741 26.8567C154.175 29.8804 158.444 35.3075 161.647 37.0605L161.969 37.318C162.029 37.8225 162.077 37.6676 161.865 38.0694C161.077 38.5646 157.09 38.3528 155.872 38.3447C153.495 35.25 150.075 31.453 147.503 28.4131C148.894 27.3053 154.998 23.1366 154.575 21.3697C154 20.5184 153.724 20.9064 152.954 20.6753C152.707 20.3292 152.812 19.9052 152.857 19.4721Z" fill="var(--fill-0, #191715)"/>
</g>
</svg>
