<svg preserveAspectRatio="none" width="100%" height="100%" overflow="visible" style="display: block;" viewBox="0 0 180 53.0137" fill="none" xmlns="http://www.w3.org/2000/svg">
<g id="image 36 [Vectorized]">
<path id="Subtract" d="M51.4681 8.17068C61.6052 7.57258 70.3076 15.3047 70.9047 25.4402C71.5016 35.5757 63.7675 44.2751 53.6302 44.8709C43.4947 45.4665 34.7946 37.7351 34.1976 27.6013C33.6008 17.4676 41.3329 8.76882 51.4681 8.17068ZM66.6058 25.2117C65.8797 17.4543 59.0049 11.7522 51.2455 12.4705C43.4754 13.19 37.7617 20.0745 38.4886 27.8426C39.2157 35.6107 46.1076 41.3162 53.8763 40.5818C61.6345 39.8484 67.3321 32.9694 66.6058 25.2117Z" fill="var(--fill-0, #191715)"/>
<path id="Vector" d="M133.443 8.18023C135.881 8.0527 138.365 8.13776 140.808 8.1347C142.611 8.13249 144.546 7.98784 146.331 8.21865C149.132 8.57975 148.855 11.7788 146.377 12.2348C145.333 12.4269 144.219 12.3542 143.162 12.3476C140.851 12.3332 138.477 12.2051 136.174 12.3233C135.376 12.3643 134.606 12.4639 134.051 13.1012C132.708 14.6435 133.066 18.0989 133.18 20.0085C133.241 21.0385 133.319 22.1268 134.051 22.9253C136.397 25.4826 146.313 22.7312 148.365 24.6789C148.758 25.0529 148.95 25.5042 148.947 26.0425C148.941 26.8182 148.582 27.557 147.85 27.8891C147.106 28.227 145.945 28.1566 145.134 28.1592C142.755 28.1669 138.499 27.8546 136.329 28.3095C135.521 28.479 134.715 28.8071 134.12 29.3966C133.054 30.4554 133.143 31.7624 133.141 33.1551C133.121 34.8 132.923 36.7112 133.279 38.318C133.453 39.105 133.892 40.0849 134.642 40.4835C136.535 41.4885 145.539 39.9051 147.666 41.3432C148.038 41.5948 148.291 41.9512 148.359 42.4002C148.439 42.9258 148.273 43.5584 147.954 43.9824C147.545 44.5225 146.932 44.7247 146.289 44.8105C144.096 45.1034 141.662 44.9004 139.443 44.8941C137.452 44.8883 135.329 45.0647 133.36 44.7985C132.629 44.6997 131.661 44.483 131.076 44.0048C130.128 43.2304 129.495 41.6263 129.361 40.4399C129.15 38.5898 129.227 36.6726 129.226 34.8115L129.235 26.1788L129.246 18.4839C129.243 14.9131 128.514 8.64908 133.443 8.18023Z" fill="var(--fill-0, #191715)"/>
<path id="Vector_2" d="M13.6193 8.17052C14.2116 8.14004 14.839 8.142 15.4337 8.14543C19.0597 8.16648 22.7068 8.06527 26.328 8.18704C28.9499 8.27528 29.3007 11.9357 26.6473 12.2126C23.142 12.5786 19.4912 12.1226 15.9637 12.3601C13.0869 12.5788 13.4423 15.1991 13.3776 17.1992C13.2228 21.9819 13.2455 24.2645 18.893 23.9866C21.1263 23.9857 23.3559 23.9443 25.5888 23.9471C27.4835 23.97 28.7341 23.7631 28.8111 26.1102C28.8979 28.7526 25.0149 28.1166 23.1479 28.0869C20.9767 28.0742 18.3554 27.7849 16.2368 28.2894C15.2292 28.5292 14.2905 29.0455 13.7919 29.9872C12.4058 32.6055 14.2998 41.7014 12.7488 44.1654C12.5085 44.5472 12.1786 44.8205 11.7245 44.8943C11.259 44.9699 10.803 44.7758 10.4433 44.4881C9.86234 44.0235 9.6802 43.3815 9.58301 42.6697C9.37933 41.1791 9.51789 39.5748 9.52695 38.0706L9.50761 31.1271L9.48325 19.3389C9.48032 17.0899 9.42536 14.8453 9.57604 12.6008C9.73516 10.232 11.2137 8.45347 13.6193 8.17052Z" fill="var(--fill-0, #191715)"/>
<path id="Vector_3" d="M161.41 8.15961C163.342 8.00208 167.603 8.35504 168.747 10.125C170.276 12.4907 168.283 14.3836 165.411 12.9872C160.886 10.4795 156.348 15.2242 158.831 19.4401C161.16 23.3922 167.174 25.0966 170.065 28.6459C171.888 30.8843 172.085 33.9112 171.787 36.5618C171.157 42.7245 165.75 45.3268 160.148 44.6786C157.898 44.4249 152.693 42.4003 154.389 39.7019C156.623 38.0063 159.653 41.5069 163.763 40.685C169.311 38.8357 169.043 31.6232 163.497 28.8163C157.21 25.6351 150.457 19.1058 155.785 11.65C157.127 9.79088 159.149 8.53656 161.41 8.15961Z" fill="var(--fill-0, #191715)"/>
<path id="Vector_4" d="M73.7952 8.20075C75.8901 9.25436 81.344 18.842 83.5788 20.1158C84.1634 20.4491 84.5811 20.4821 85.0742 20.1158C87.5594 18.2697 93.0045 8.56031 95.258 8.12573C95.6987 8.04055 96.1491 8.11949 96.5127 8.39179C96.9509 8.72052 97.2042 9.28287 97.2752 9.81696C97.3621 10.4761 97.181 11.1109 96.8701 11.6888C96.1528 13.026 94.9679 14.2934 94.0584 15.5229C91.9066 18.4355 89.7914 21.3746 87.5771 24.2407C86.1753 26.3328 86.4817 29.2228 86.4881 31.6691L86.5256 39.756C86.5364 42.262 87.0924 44.9182 84.2952 44.9845C83.6359 45.0001 82.6717 44.5583 82.3466 43.921C81.464 42.19 82.4009 29.6552 81.9491 26.4365C81.6018 23.9628 71.9208 14.1782 70.9668 10.2298C70.7303 8.87357 72.4973 7.54819 73.7952 8.20075Z" fill="var(--fill-0, #191715)"/>
<path id="Vector_5" d="M104.928 8.13903C105.514 8.1564 106.146 8.37449 106.404 8.94395C107.015 10.2904 106.672 29.4191 106.667 32.6384C106.665 34.3811 106.395 36.9627 106.826 38.6067C108.122 43.5646 119.764 39.3889 123.444 40.9815C125.215 41.7263 124.517 44.5891 122.931 44.7121C121.361 45.0817 107.425 45.0672 105.893 44.6265C104.814 44.3156 104.011 43.711 103.474 42.7145C103.078 41.9811 102.891 41.1641 102.822 40.3388C102.496 36.447 102.732 31.5597 102.732 27.5497C102.733 22.2056 102.538 16.782 102.755 11.4483C102.783 10.7677 102.819 10.0535 103.028 9.40192C103.343 8.4217 103.97 8.11055 104.928 8.13903Z" fill="var(--fill-0, #191715)"/>
</g>
</svg>
