<svg preserveAspectRatio="none" width="100%" height="100%" overflow="visible" style="display: block;" viewBox="0 0 73.8846 18.1449" fill="none" xmlns="http://www.w3.org/2000/svg">
<g id="Group 1">
<path id="Vector" d="M6.87994 0.0349187C9.47641 -0.0469446 11.3458 -0.111292 13.6302 1.39809C15.3162 2.48154 16.3605 4.48329 16.666 6.40905C17.2377 10.0139 16.9489 14.4604 13.652 16.7079C12.4306 17.5406 11.4499 17.8371 10.015 18.1001C7.39918 18.1987 5.65838 18.2666 3.33773 16.791C1.68904 15.7426 0.619509 13.8924 0.275831 12.0045C-0.223475 9.2615 -0.167366 5.5424 1.48336 3.15151C2.84813 1.17477 4.63068 0.483942 6.87994 0.0349187ZM8.98538 17.5331C14.4839 17.6382 16.1542 14.261 16.2237 9.22988C16.2862 4.70009 14.8379 0.631713 9.63272 0.570038C9.01507 0.566475 8.42874 0.494259 7.79276 0.573451C6.29822 0.641138 5.03091 0.71209 3.70601 1.51128C1.56159 2.78576 0.879891 5.18681 0.742875 7.5417C0.57785 10.378 0.610447 13.9254 2.87747 15.9956C4.64519 17.6098 6.74523 17.548 8.98538 17.5331Z" fill="var(--fill-0, #696969)" fill-opacity="0.945098"/>
<path id="Vector_2" d="M5.405 2.55498C6.44585 1.77375 8.58944 2.15382 10.0048 2.08688C8.90487 3.26035 9.31834 3.82464 9.22995 5.39288C9.98423 5.36564 10.7204 5.37566 11.4653 5.35421C10.5949 6.31126 9.93332 7.37266 9.11795 8.28503C9.96924 9.27229 11.1203 10.5692 11.8103 11.6586C12.1891 10.5275 14.1531 6.65742 13.9874 5.89623C13.8397 5.63357 13.5798 5.46509 13.3387 5.28073C14.1135 5.36171 14.7172 5.39867 15.4982 5.30946C14.6643 6.35973 12.3638 11.7495 11.7983 13.2417C11.5646 12.9287 9.53647 10.2717 9.40162 10.1962C8.91919 10.6249 9.81665 15.2418 8.60154 15.9792C7.78105 16.4772 7.64657 16.36 6.75616 16.335L6.18397 16.0117C6.05952 15.7445 5.92226 15.4667 5.82812 15.1889C6.06585 14.5095 6.21952 14.0427 7.10002 14.3673C7.19687 14.403 7.25907 14.4581 7.33203 14.5312C7.53806 15.1343 6.95485 15.357 6.99745 15.8133C7.79767 16.2725 8.20462 15.5076 8.22399 14.7925C8.27238 13.0002 8.1871 11.2035 8.23215 9.41272C7.68746 10.0213 5.73831 12.8389 5.37156 13.0099C5.10424 12.8269 2.15925 6.34139 1.39844 5.32333C1.73152 5.3407 3.22133 5.34998 3.36633 5.37982C3.0562 6.20639 2.98833 5.86142 3.43797 6.90264C4.14413 8.5379 5.17628 10.124 5.6774 11.8276C6.309 10.7987 7.31035 9.5616 8.09247 8.63119C7.67759 7.94637 5.91228 5.90417 5.29354 5.29424C6.30543 5.4242 7.25788 5.32267 8.24395 5.37848C8.19935 4.03868 8.25835 3.83451 9.09517 2.76836C7.72739 3.09046 7.04443 2.7904 5.58268 2.98485L5.405 2.55498ZM8.24187 7.0985C8.23007 6.61674 8.22013 6.28172 8.26659 5.80019L7.1496 5.81095C7.2011 6.1577 7.95539 6.84222 8.24187 7.0985ZM9.85606 6.41628C10.0092 6.18168 10.2504 6.00355 10.4678 5.82335L9.25548 5.76791C9.24858 6.09454 9.2079 6.57949 9.31441 6.87169L9.41683 6.918C9.6213 6.8279 9.73152 6.60784 9.85606 6.41628Z" fill="var(--fill-0, #696969)" fill-opacity="0.980392"/>
<path id="Vector_3" d="M5.4109 2.55493L5.58858 2.98481L4.75 3.53915C4.98337 3.13243 5.13176 2.9258 5.4109 2.55493Z" fill="var(--fill-0, #696969)" fill-opacity="0.858824"/>
<path id="Vector_4" d="M23.0289 2.06598C23.6265 2.11147 26.9351 1.94292 27.1379 2.24581C26.9499 2.42319 26.8638 2.52235 26.7008 2.72222C26.5549 3.14609 27.3338 4.78135 27.5498 5.29338C27.7181 4.48833 28.0671 3.84077 28.2583 3.06073C28.3341 2.75109 28.0655 2.46134 27.8732 2.21612C28.1888 2.02182 30.4555 2.09166 31.0105 2.09136C30.87 2.21308 30.4609 2.56577 30.3883 2.70352C29.6472 4.10803 28.9669 5.9353 28.3622 7.40876C28.9549 8.6975 29.619 10.5111 30.2182 11.6812C30.4504 10.1895 31.706 6.86689 32.2515 5.3011C32.7545 3.69642 33.7079 2.96744 31.9955 2.10635C33.5245 2.07258 35.054 2.08023 36.5826 2.12936C36.2471 2.29591 35.8274 2.46513 35.4785 2.61683C35.1151 3.25904 34.4451 5.13515 34.1601 5.87177L31.6477 12.3722C31.1483 13.663 30.498 15.4694 29.861 16.6519C29.1493 15.6205 27.5968 11.7117 27.1765 10.4169C26.2438 12.2774 25.4291 14.9309 24.4091 16.7133C23.7916 15.5557 23.1469 13.9313 22.6169 12.6955L19.7753 6.10148C19.3338 5.08349 18.8988 4.06387 18.4353 3.05613C18.2054 2.55664 17.5923 2.49637 17.3984 2.10836C18.5439 2.01477 20.8198 2.09069 22.0488 2.10643C21.7195 2.29814 21.5134 2.43693 21.2061 2.66277C21.2996 3.72388 24.1937 10.2811 24.8387 11.6528C25.1156 10.627 25.7661 9.34862 26.1558 8.27148C25.4546 6.55102 24.4354 4.52945 23.8661 2.78523C23.5838 2.54929 23.3047 2.30949 23.0289 2.06598Z" fill="var(--fill-0, #696969)"/>
<path id="Vector_5" d="M53.1832 15.4022C53.3805 11.4269 53.1261 7.04034 53.1302 3.04366C53.1306 2.63145 52.5906 2.55834 52.3784 2.21924L52.4269 2.12988C52.5725 2.10071 53.0713 2.06724 53.2064 2.08112C54.0769 2.17055 60.1764 1.93491 60.5612 2.15541C60.7311 2.42579 60.6776 2.38786 60.6919 2.74968C60.6616 3.35783 60.792 4.02773 60.4296 4.37863C60.2717 4.36958 60.2245 4.33321 60.0788 4.26285C59.1374 3.82147 56.8668 4.09237 55.7146 4.04792C55.7264 5.22317 55.7469 6.50968 55.7118 7.68018C56.6723 7.70794 58.1964 7.78112 59.1473 7.71158L59.8968 6.77048C59.8391 8.08942 59.861 9.48488 59.862 10.8109C59.512 10.2533 59.2653 9.81627 58.5398 9.69848C57.6611 9.55584 56.6313 9.74109 55.7102 9.68527C55.727 10.8962 55.7789 12.9005 55.7006 14.0836C56.6608 14.1034 59.5604 14.2512 60.2592 13.9479L60.591 13.8797C60.8371 14.1136 60.7323 14.8878 60.8882 15.399L61.0487 15.5232C61.044 15.8605 61.1001 15.8859 60.9396 16.1157C60.6189 16.2465 53.0078 16.1574 52.0547 16.1781C52.4586 15.9405 52.8543 15.736 53.1832 15.4022Z" fill="var(--fill-0, #696969)"/>
<path id="Vector_6" d="M61.3359 2.11653C62.581 2.03496 64.5003 2.08298 65.7673 2.10176C65.5936 2.26073 65.2785 2.47723 65.1716 2.68C64.9189 3.15923 67.5955 7.48492 67.8926 8.30771C68.4326 7.0618 70.4913 3.75053 70.3907 2.78605C70.2512 2.5274 69.7281 2.27187 69.4492 2.11156C70.8085 2.04068 72.5035 2.09248 73.8846 2.10369C73.6938 2.23119 73.2522 2.5254 73.1357 2.69321C72.1374 4.13468 71.1419 6.08597 70.3126 7.62957C69.773 8.73239 68.9132 9.63169 68.9333 10.912C68.9561 12.3549 68.838 13.8438 68.9925 15.2774C69.0297 15.6226 69.7552 16.0245 70.0283 16.1999C68.693 16.0986 66.6108 16.1435 65.2353 16.171C65.4952 16.0009 65.9173 15.8065 66.2052 15.6632C66.2386 15.5706 66.2693 15.477 66.2972 15.3827C66.4409 14.8915 66.4115 13.7044 66.393 13.1764C66.3695 12.5036 66.4823 10.8657 66.3202 10.2988C66.0823 9.46648 65.1342 8.01981 64.6739 7.21164C63.7956 5.66945 62.8624 4.16645 62.0177 2.60414C61.6306 2.44012 61.5486 2.43292 61.3359 2.11653Z" fill="var(--fill-0, #696969)"/>
<path id="Vector_7" d="M42.7812 2.09523C44.3688 2.10755 46.3164 2.01745 47.8716 2.13256C47.6381 2.24931 46.8464 2.59673 46.8028 2.80469C46.551 4.00584 46.6826 5.76067 46.6642 7.00911C46.6293 9.3755 46.7025 11.7566 46.662 14.1073C47.9091 14.1161 49.3331 14.231 50.5013 13.9053C50.8793 13.9405 51.2305 13.9972 51.5039 13.6741C51.3555 14.5707 51.4448 15.204 51.2405 16.1588L45.6393 16.1509C45.2349 16.1515 43.4146 16.1992 43.1611 16.1282L43.144 16.0305C43.385 15.8542 43.6759 15.7713 43.9588 15.6728C44.1806 14.2615 44.2375 3.85399 43.9112 2.68564C43.555 2.50878 43.1112 2.30408 42.7812 2.09523Z" fill="var(--fill-0, #696969)"/>
<path id="Vector_8" d="M37.2742 2.10362C38.6102 2.07861 39.9467 2.07995 41.2827 2.10763C40.9761 2.3072 40.63 2.5162 40.3609 2.7592C40.2756 3.03752 40.1728 3.38976 40.166 3.67877C40.0977 6.61071 40.1445 9.54969 40.1347 12.4831C40.1316 13.4344 40.0715 14.5942 40.2779 15.5105C40.6515 15.8492 41.0166 15.9841 41.4745 16.1935C39.9329 16.115 38.0178 16.1324 36.4609 16.1691C36.7711 15.9889 37.5137 15.6716 37.5337 15.3771C37.6418 13.788 37.6396 11.5983 37.6024 10.0083C37.5487 7.70461 37.7034 5.05085 37.5683 2.81946C37.533 2.52251 37.5101 2.63117 37.6251 2.38632L37.2742 2.10362Z" fill="var(--fill-0, #696969)"/>
<path id="Vector_9" d="M60.2578 13.9478C60.8465 13.3745 60.8929 13.1758 61.1917 12.4221C61.2423 13.7078 61.0663 14.4026 61.0473 15.5232L60.8868 15.399C60.7309 14.8877 60.8358 14.1136 60.5896 13.8796L60.2578 13.9478Z" fill="var(--fill-0, #696969)" fill-opacity="0.960784"/>
<path id="Vector_10" d="M50.5078 13.9053C50.9934 13.6235 51.0654 13.1651 51.4691 12.6844L51.5444 12.6998C51.5634 13.1032 51.5572 13.273 51.5104 13.6741C51.2369 13.9972 50.8857 13.9405 50.5078 13.9053Z" fill="var(--fill-0, #696969)" fill-opacity="0.945098"/>
<path id="Vector_11" d="M60.6912 2.74976C60.7813 3.17295 60.8562 4.83011 60.6317 5.15229L60.5268 5.12253C60.4085 4.76717 60.357 4.51802 60.0781 4.26293C60.2238 4.33329 60.2711 4.36965 60.429 4.37871C60.7914 4.0278 60.661 3.3579 60.6912 2.74976Z" fill="var(--fill-0, #696969)" fill-opacity="0.870588"/>
<path id="Vector_12" d="M37.5665 2.81942C37.2896 2.49486 36.8391 2.44825 36.7109 2.1663C36.8806 2.06818 37.0674 2.09883 37.2723 2.10358L37.6232 2.38628C37.5083 2.63113 37.5312 2.52247 37.5665 2.81942Z" fill="var(--fill-0, #696969)" fill-opacity="0.901961"/>
</g>
</svg>
